<?xml version="1.0" encoding="UTF-8" standalone="no"?>
<!-- Created with Inkscape (http://www.inkscape.org/) -->

<svg
   xmlns:dc="http://purl.org/dc/elements/1.1/"
   xmlns:cc="http://creativecommons.org/ns#"
   xmlns:rdf="http://www.w3.org/1999/02/22-rdf-syntax-ns#"
   xmlns:svg="http://www.w3.org/2000/svg"
   xmlns="http://www.w3.org/2000/svg"
   xmlns:sodipodi="http://sodipodi.sourceforge.net/DTD/sodipodi-0.dtd"
   xmlns:inkscape="http://www.inkscape.org/namespaces/inkscape"
   id="svg8"
   version="1.1"
   viewBox="0 0 210 297"
   height="297mm"
   width="210mm"
   inkscape:version="0.92.5 (2060ec1f9f, 2020-04-08)"
   sodipodi:docname="3dm.svg">
  <defs
     id="defs2" />
  <sodipodi:namedview
     id="base"
     pagecolor="#ffffff"
     bordercolor="#666666"
     borderopacity="1.0"
     inkscape:pageopacity="0.0"
     inkscape:pageshadow="2"
     inkscape:zoom="8"
     inkscape:cx="-268.64548"
     inkscape:cy="603.51268"
     inkscape:document-units="mm"
     inkscape:current-layer="layer1"
     showgrid="false"
     showborder="false"
     inkscape:window-width="2538"
     inkscape:window-height="1376"
     inkscape:window-x="2582"
     inkscape:window-y="27"
     inkscape:window-maximized="0" />
  <metadata
     id="metadata5">
    <rdf:RDF>
      <cc:Work
         rdf:about="">
        <dc:format>image/svg+xml</dc:format>
        <dc:type
           rdf:resource="http://purl.org/dc/dcmitype/StillImage" />
        <dc:title></dc:title>
      </cc:Work>
    </rdf:RDF>
  </metadata>
  <g
     inkscape:label="Layer 1"
     inkscape:groupmode="layer"
     id="layer1">
    <path
       style="font-style:normal;font-variant:normal;font-weight:500;font-stretch:normal;font-size:85.33333588px;line-height:1.25;font-family:GeosansLight;-inkscape-font-specification:'GeosansLight, Medium';font-variant-ligatures:normal;font-variant-caps:normal;font-variant-numeric:normal;font-feature-settings:normal;text-align:start;letter-spacing:0px;word-spacing:0px;writing-mode:lr-tb;text-anchor:start;fill:#ffd700;fill-opacity:1;stroke:none;stroke-width:0.26458332"
       inkscape:connector-curvature="0"
       id="path834"
       d="m -65.117719,146.52867 -4.199467,-16.61725 -5.4864,14.40462 -5.4864,-14.38204 -4.199466,16.59467 h 0.925687 l 3.4544,-13.56925 5.305779,13.97565 5.305777,-13.95307 3.431823,13.54667 z"
       inkscape:export-xdpi="96"
       inkscape:export-ydpi="96" />
    <path
       style="font-style:normal;font-variant:normal;font-weight:500;font-stretch:normal;font-size:85.33333588px;line-height:1.25;font-family:GeosansLight;-inkscape-font-specification:'GeosansLight, Medium';font-variant-ligatures:normal;font-variant-caps:normal;font-variant-numeric:normal;font-feature-settings:normal;text-align:start;letter-spacing:0px;word-spacing:0px;writing-mode:lr-tb;text-anchor:start;fill:#115173;fill-opacity:1;stroke:none;stroke-width:0.26458332"
       inkscape:connector-curvature="0"
       id="path831"
       d="m -62.629038,145.54645 -4.199467,-16.61725 -5.4864,14.40462 -5.4864,-14.38204 -4.199466,16.59467 h 0.925687 l 3.4544,-13.56925 5.305779,13.97565 5.305777,-13.95307 3.431823,13.54667 z"
       inkscape:export-xdpi="96"
       inkscape:export-ydpi="96" />
    <g
       id="g1950">
      <path
         id="path1846"
         style="font-size:85.33333588px;fill-opacity:1.0;font-variant-numeric:normal;letter-spacing:0px;word-spacing:0px;stroke:none;stroke-width:0.26458332;font-style:normal;fill:#ffd700;font-stretch:normal;font-feature-settings:normal;font-weight:500;opacity:1.0;-inkscape-font-specification:'GeosansLight, Medium';font-variant:normal;font-variant-caps:normal;font-family:GeosansLight;text-align:start;font-variant-ligatures:normal;writing-mode:lr-tb;text-anchor:start;line-height:1.25"
         d="M-65.117719 146.52867C-65.117719 146.52867 -69.317186 129.91142 -69.317186 129.91142C-69.317186 129.91142 -74.803586 144.31604 -74.803586 144.31604C-74.803586 144.31604 -80.289986 129.934 -80.289986 129.934C-80.289986 129.934 -84.489452 146.52867 -84.489452 146.52867C-84.489452 146.52867 -83.563765 146.52867 -83.563765 146.52867C-83.563765 146.52867 -80.109365 132.95942 -80.109365 132.95942C-80.109365 132.95942 -74.803586 146.93507 -74.803586 146.93507C-74.803586 146.93507 -69.497809 132.982 -69.497809 132.982C-69.497809 132.982 -66.065986 146.52867 -66.065986 146.52867C-66.065986 146.52867 -65.117719 146.52867 -65.117719 146.52867" />
      <path
         id="path1848"
         style="font-size:85.33333588px;fill-opacity:1.0;font-variant-numeric:normal;letter-spacing:0px;word-spacing:0px;stroke:none;stroke-width:0.26458332;font-style:normal;fill:#fad402;font-stretch:normal;font-feature-settings:normal;font-weight:500;opacity:1.0;-inkscape-font-specification:'GeosansLight, Medium';font-variant:normal;font-variant-caps:normal;font-family:GeosansLight;text-align:start;font-variant-ligatures:normal;writing-mode:lr-tb;text-anchor:start;line-height:1.25"
         d="M-65.0689213333 146.509410784C-65.0689213333 146.509410784 -69.2683883333 129.892160784 -69.2683883333 129.892160784C-69.2683883333 129.892160784 -74.7547883333 144.296780784 -74.7547883333 144.296780784C-74.7547883333 144.296780784 -80.2411883333 129.914740784 -80.2411883333 129.914740784C-80.2411883333 129.914740784 -84.4406543333 146.509410784 -84.4406543333 146.509410784C-84.4406543333 146.509410784 -83.5149673333 146.509410784 -83.5149673333 146.509410784C-83.5149673333 146.509410784 -80.0605673333 132.940160784 -80.0605673333 132.940160784C-80.0605673333 132.940160784 -74.7547883333 146.915810784 -74.7547883333 146.915810784C-74.7547883333 146.915810784 -69.4490113333 132.962740784 -69.4490113333 132.962740784C-69.4490113333 132.962740784 -66.0171883333 146.509410784 -66.0171883333 146.509410784C-66.0171883333 146.509410784 -65.0689213333 146.509410784 -65.0689213333 146.509410784" />
      <path
         id="path1850"
         style="font-size:85.33333588px;fill-opacity:1.0;font-variant-numeric:normal;letter-spacing:0px;word-spacing:0px;stroke:none;stroke-width:0.26458332;font-style:normal;fill:#f5d104;font-stretch:normal;font-feature-settings:normal;font-weight:500;opacity:1.0;-inkscape-font-specification:'GeosansLight, Medium';font-variant:normal;font-variant-caps:normal;font-family:GeosansLight;text-align:start;font-variant-ligatures:normal;writing-mode:lr-tb;text-anchor:start;line-height:1.25"
         d="M-65.0201236667 146.490151569C-65.0201236667 146.490151569 -69.2195906667 129.872901569 -69.2195906667 129.872901569C-69.2195906667 129.872901569 -74.7059906667 144.277521569 -74.7059906667 144.277521569C-74.7059906667 144.277521569 -80.1923906667 129.895481569 -80.1923906667 129.895481569C-80.1923906667 129.895481569 -84.3918566667 146.490151569 -84.3918566667 146.490151569C-84.3918566667 146.490151569 -83.4661696667 146.490151569 -83.4661696667 146.490151569C-83.4661696667 146.490151569 -80.0117696667 132.920901569 -80.0117696667 132.920901569C-80.0117696667 132.920901569 -74.7059906667 146.896551569 -74.7059906667 146.896551569C-74.7059906667 146.896551569 -69.4002136667 132.943481569 -69.4002136667 132.943481569C-69.4002136667 132.943481569 -65.9683906667 146.490151569 -65.9683906667 146.490151569C-65.9683906667 146.490151569 -65.0201236667 146.490151569 -65.0201236667 146.490151569" />
      <path
         id="path1852"
         style="font-size:85.33333588px;fill-opacity:1.0;font-variant-numeric:normal;letter-spacing:0px;word-spacing:0px;stroke:none;stroke-width:0.26458332;font-style:normal;fill:#f1cf06;font-stretch:normal;font-feature-settings:normal;font-weight:500;opacity:1.0;-inkscape-font-specification:'GeosansLight, Medium';font-variant:normal;font-variant-caps:normal;font-family:GeosansLight;text-align:start;font-variant-ligatures:normal;writing-mode:lr-tb;text-anchor:start;line-height:1.25"
         d="M-64.971326 146.470892353C-64.971326 146.470892353 -69.170793 129.853642353 -69.170793 129.853642353C-69.170793 129.853642353 -74.657193 144.258262353 -74.657193 144.258262353C-74.657193 144.258262353 -80.143593 129.876222353 -80.143593 129.876222353C-80.143593 129.876222353 -84.343059 146.470892353 -84.343059 146.470892353C-84.343059 146.470892353 -83.417372 146.470892353 -83.417372 146.470892353C-83.417372 146.470892353 -79.962972 132.901642353 -79.962972 132.901642353C-79.962972 132.901642353 -74.657193 146.877292353 -74.657193 146.877292353C-74.657193 146.877292353 -69.351416 132.924222353 -69.351416 132.924222353C-69.351416 132.924222353 -65.919593 146.470892353 -65.919593 146.470892353C-65.919593 146.470892353 -64.971326 146.470892353 -64.971326 146.470892353" />
      <path
         id="path1854"
         style="font-size:85.33333588px;fill-opacity:1.0;font-variant-numeric:normal;letter-spacing:0px;word-spacing:0px;stroke:none;stroke-width:0.26458332;font-style:normal;fill:#eccc09;font-stretch:normal;font-feature-settings:normal;font-weight:500;opacity:1.0;-inkscape-font-specification:'GeosansLight, Medium';font-variant:normal;font-variant-caps:normal;font-family:GeosansLight;text-align:start;font-variant-ligatures:normal;writing-mode:lr-tb;text-anchor:start;line-height:1.25"
         d="M-64.9225283333 146.451633137C-64.9225283333 146.451633137 -69.1219953333 129.834383137 -69.1219953333 129.834383137C-69.1219953333 129.834383137 -74.6083953333 144.239003137 -74.6083953333 144.239003137C-74.6083953333 144.239003137 -80.0947953333 129.856963137 -80.0947953333 129.856963137C-80.0947953333 129.856963137 -84.2942613333 146.451633137 -84.2942613333 146.451633137C-84.2942613333 146.451633137 -83.3685743333 146.451633137 -83.3685743333 146.451633137C-83.3685743333 146.451633137 -79.9141743333 132.882383137 -79.9141743333 132.882383137C-79.9141743333 132.882383137 -74.6083953333 146.858033137 -74.6083953333 146.858033137C-74.6083953333 146.858033137 -69.3026183333 132.904963137 -69.3026183333 132.904963137C-69.3026183333 132.904963137 -65.8707953333 146.451633137 -65.8707953333 146.451633137C-65.8707953333 146.451633137 -64.9225283333 146.451633137 -64.9225283333 146.451633137" />
      <path
         id="path1856"
         style="font-size:85.33333588px;fill-opacity:1.0;font-variant-numeric:normal;letter-spacing:0px;word-spacing:0px;stroke:none;stroke-width:0.26458332;font-style:normal;fill:#e7c90b;font-stretch:normal;font-feature-settings:normal;font-weight:500;opacity:1.0;-inkscape-font-specification:'GeosansLight, Medium';font-variant:normal;font-variant-caps:normal;font-family:GeosansLight;text-align:start;font-variant-ligatures:normal;writing-mode:lr-tb;text-anchor:start;line-height:1.25"
         d="M-64.8737306667 146.432373922C-64.8737306667 146.432373922 -69.0731976667 129.815123922 -69.0731976667 129.815123922C-69.0731976667 129.815123922 -74.5595976667 144.219743922 -74.5595976667 144.219743922C-74.5595976667 144.219743922 -80.0459976667 129.837703922 -80.0459976667 129.837703922C-80.0459976667 129.837703922 -84.2454636667 146.432373922 -84.2454636667 146.432373922C-84.2454636667 146.432373922 -83.3197766667 146.432373922 -83.3197766667 146.432373922C-83.3197766667 146.432373922 -79.8653766667 132.863123922 -79.8653766667 132.863123922C-79.8653766667 132.863123922 -74.5595976667 146.838773922 -74.5595976667 146.838773922C-74.5595976667 146.838773922 -69.2538206667 132.885703922 -69.2538206667 132.885703922C-69.2538206667 132.885703922 -65.8219976667 146.432373922 -65.8219976667 146.432373922C-65.8219976667 146.432373922 -64.8737306667 146.432373922 -64.8737306667 146.432373922" />
      <path
         id="path1858"
         style="font-size:85.33333588px;fill-opacity:1.0;font-variant-numeric:normal;letter-spacing:0px;word-spacing:0px;stroke:none;stroke-width:0.26458332;font-style:normal;fill:#e3c70d;font-stretch:normal;font-feature-settings:normal;font-weight:500;opacity:1.0;-inkscape-font-specification:'GeosansLight, Medium';font-variant:normal;font-variant-caps:normal;font-family:GeosansLight;text-align:start;font-variant-ligatures:normal;writing-mode:lr-tb;text-anchor:start;line-height:1.25"
         d="M-64.824933 146.413114706C-64.824933 146.413114706 -69.0244 129.795864706 -69.0244 129.795864706C-69.0244 129.795864706 -74.5108 144.200484706 -74.5108 144.200484706C-74.5108 144.200484706 -79.9972 129.818444706 -79.9972 129.818444706C-79.9972 129.818444706 -84.196666 146.413114706 -84.196666 146.413114706C-84.196666 146.413114706 -83.270979 146.413114706 -83.270979 146.413114706C-83.270979 146.413114706 -79.816579 132.843864706 -79.816579 132.843864706C-79.816579 132.843864706 -74.5108 146.819514706 -74.5108 146.819514706C-74.5108 146.819514706 -69.205023 132.866444706 -69.205023 132.866444706C-69.205023 132.866444706 -65.7732 146.413114706 -65.7732 146.413114706C-65.7732 146.413114706 -64.824933 146.413114706 -64.824933 146.413114706" />
      <path
         id="path1860"
         style="font-size:85.33333588px;fill-opacity:1.0;font-variant-numeric:normal;letter-spacing:0px;word-spacing:0px;stroke:none;stroke-width:0.26458332;font-style:normal;fill:#dec40f;font-stretch:normal;font-feature-settings:normal;font-weight:500;opacity:1.0;-inkscape-font-specification:'GeosansLight, Medium';font-variant:normal;font-variant-caps:normal;font-family:GeosansLight;text-align:start;font-variant-ligatures:normal;writing-mode:lr-tb;text-anchor:start;line-height:1.25"
         d="M-64.7761353333 146.39385549C-64.7761353333 146.39385549 -68.9756023333 129.77660549 -68.9756023333 129.77660549C-68.9756023333 129.77660549 -74.4620023333 144.18122549 -74.4620023333 144.18122549C-74.4620023333 144.18122549 -79.9484023333 129.79918549 -79.9484023333 129.79918549C-79.9484023333 129.79918549 -84.1478683333 146.39385549 -84.1478683333 146.39385549C-84.1478683333 146.39385549 -83.2221813333 146.39385549 -83.2221813333 146.39385549C-83.2221813333 146.39385549 -79.7677813333 132.82460549 -79.7677813333 132.82460549C-79.7677813333 132.82460549 -74.4620023333 146.80025549 -74.4620023333 146.80025549C-74.4620023333 146.80025549 -69.1562253333 132.84718549 -69.1562253333 132.84718549C-69.1562253333 132.84718549 -65.7244023333 146.39385549 -65.7244023333 146.39385549C-65.7244023333 146.39385549 -64.7761353333 146.39385549 -64.7761353333 146.39385549" />
      <path
         id="path1862"
         style="font-size:85.33333588px;fill-opacity:1.0;font-variant-numeric:normal;letter-spacing:0px;word-spacing:0px;stroke:none;stroke-width:0.26458332;font-style:normal;fill:#d9c112;font-stretch:normal;font-feature-settings:normal;font-weight:500;opacity:1.0;-inkscape-font-specification:'GeosansLight, Medium';font-variant:normal;font-variant-caps:normal;font-family:GeosansLight;text-align:start;font-variant-ligatures:normal;writing-mode:lr-tb;text-anchor:start;line-height:1.25"
         d="M-64.7273376667 146.374596275C-64.7273376667 146.374596275 -68.9268046667 129.757346275 -68.9268046667 129.757346275C-68.9268046667 129.757346275 -74.4132046667 144.161966275 -74.4132046667 144.161966275C-74.4132046667 144.161966275 -79.8996046667 129.779926275 -79.8996046667 129.779926275C-79.8996046667 129.779926275 -84.0990706667 146.374596275 -84.0990706667 146.374596275C-84.0990706667 146.374596275 -83.1733836667 146.374596275 -83.1733836667 146.374596275C-83.1733836667 146.374596275 -79.7189836667 132.805346275 -79.7189836667 132.805346275C-79.7189836667 132.805346275 -74.4132046667 146.780996275 -74.4132046667 146.780996275C-74.4132046667 146.780996275 -69.1074276667 132.827926275 -69.1074276667 132.827926275C-69.1074276667 132.827926275 -65.6756046667 146.374596275 -65.6756046667 146.374596275C-65.6756046667 146.374596275 -64.7273376667 146.374596275 -64.7273376667 146.374596275" />
      <path
         id="path1864"
         style="font-size:85.33333588px;fill-opacity:1.0;font-variant-numeric:normal;letter-spacing:0px;word-spacing:0px;stroke:none;stroke-width:0.26458332;font-style:normal;fill:#d5bf14;font-stretch:normal;font-feature-settings:normal;font-weight:500;opacity:1.0;-inkscape-font-specification:'GeosansLight, Medium';font-variant:normal;font-variant-caps:normal;font-family:GeosansLight;text-align:start;font-variant-ligatures:normal;writing-mode:lr-tb;text-anchor:start;line-height:1.25"
         d="M-64.67854 146.355337059C-64.67854 146.355337059 -68.878007 129.738087059 -68.878007 129.738087059C-68.878007 129.738087059 -74.364407 144.142707059 -74.364407 144.142707059C-74.364407 144.142707059 -79.850807 129.760667059 -79.850807 129.760667059C-79.850807 129.760667059 -84.050273 146.355337059 -84.050273 146.355337059C-84.050273 146.355337059 -83.124586 146.355337059 -83.124586 146.355337059C-83.124586 146.355337059 -79.670186 132.786087059 -79.670186 132.786087059C-79.670186 132.786087059 -74.364407 146.761737059 -74.364407 146.761737059C-74.364407 146.761737059 -69.05863 132.808667059 -69.05863 132.808667059C-69.05863 132.808667059 -65.626807 146.355337059 -65.626807 146.355337059C-65.626807 146.355337059 -64.67854 146.355337059 -64.67854 146.355337059" />
      <path
         id="path1866"
         style="font-size:85.33333588px;fill-opacity:1.0;font-variant-numeric:normal;letter-spacing:0px;word-spacing:0px;stroke:none;stroke-width:0.26458332;font-style:normal;fill:#d0bc16;font-stretch:normal;font-feature-settings:normal;font-weight:500;opacity:1.0;-inkscape-font-specification:'GeosansLight, Medium';font-variant:normal;font-variant-caps:normal;font-family:GeosansLight;text-align:start;font-variant-ligatures:normal;writing-mode:lr-tb;text-anchor:start;line-height:1.25"
         d="M-64.6297423333 146.336077843C-64.6297423333 146.336077843 -68.8292093333 129.718827843 -68.8292093333 129.718827843C-68.8292093333 129.718827843 -74.3156093333 144.123447843 -74.3156093333 144.123447843C-74.3156093333 144.123447843 -79.8020093333 129.741407843 -79.8020093333 129.741407843C-79.8020093333 129.741407843 -84.0014753333 146.336077843 -84.0014753333 146.336077843C-84.0014753333 146.336077843 -83.0757883333 146.336077843 -83.0757883333 146.336077843C-83.0757883333 146.336077843 -79.6213883333 132.766827843 -79.6213883333 132.766827843C-79.6213883333 132.766827843 -74.3156093333 146.742477843 -74.3156093333 146.742477843C-74.3156093333 146.742477843 -69.0098323333 132.789407843 -69.0098323333 132.789407843C-69.0098323333 132.789407843 -65.5780093333 146.336077843 -65.5780093333 146.336077843C-65.5780093333 146.336077843 -64.6297423333 146.336077843 -64.6297423333 146.336077843" />
      <path
         id="path1868"
         style="font-size:85.33333588px;fill-opacity:1.0;font-variant-numeric:normal;letter-spacing:0px;word-spacing:0px;stroke:none;stroke-width:0.26458332;font-style:normal;fill:#cbba18;font-stretch:normal;font-feature-settings:normal;font-weight:500;opacity:1.0;-inkscape-font-specification:'GeosansLight, Medium';font-variant:normal;font-variant-caps:normal;font-family:GeosansLight;text-align:start;font-variant-ligatures:normal;writing-mode:lr-tb;text-anchor:start;line-height:1.25"
         d="M-64.5809446667 146.316818627C-64.5809446667 146.316818627 -68.7804116667 129.699568627 -68.7804116667 129.699568627C-68.7804116667 129.699568627 -74.2668116667 144.104188627 -74.2668116667 144.104188627C-74.2668116667 144.104188627 -79.7532116667 129.722148627 -79.7532116667 129.722148627C-79.7532116667 129.722148627 -83.9526776667 146.316818627 -83.9526776667 146.316818627C-83.9526776667 146.316818627 -83.0269906667 146.316818627 -83.0269906667 146.316818627C-83.0269906667 146.316818627 -79.5725906667 132.747568627 -79.5725906667 132.747568627C-79.5725906667 132.747568627 -74.2668116667 146.723218627 -74.2668116667 146.723218627C-74.2668116667 146.723218627 -68.9610346667 132.770148627 -68.9610346667 132.770148627C-68.9610346667 132.770148627 -65.5292116667 146.316818627 -65.5292116667 146.316818627C-65.5292116667 146.316818627 -64.5809446667 146.316818627 -64.5809446667 146.316818627" />
      <path
         id="path1870"
         style="font-size:85.33333588px;fill-opacity:1.0;font-variant-numeric:normal;letter-spacing:0px;word-spacing:0px;stroke:none;stroke-width:0.26458332;font-style:normal;fill:#c7b71b;font-stretch:normal;font-feature-settings:normal;font-weight:500;opacity:1.0;-inkscape-font-specification:'GeosansLight, Medium';font-variant:normal;font-variant-caps:normal;font-family:GeosansLight;text-align:start;font-variant-ligatures:normal;writing-mode:lr-tb;text-anchor:start;line-height:1.25"
         d="M-64.532147 146.297559412C-64.532147 146.297559412 -68.731614 129.680309412 -68.731614 129.680309412C-68.731614 129.680309412 -74.218014 144.084929412 -74.218014 144.084929412C-74.218014 144.084929412 -79.704414 129.702889412 -79.704414 129.702889412C-79.704414 129.702889412 -83.90388 146.297559412 -83.90388 146.297559412C-83.90388 146.297559412 -82.978193 146.297559412 -82.978193 146.297559412C-82.978193 146.297559412 -79.523793 132.728309412 -79.523793 132.728309412C-79.523793 132.728309412 -74.218014 146.703959412 -74.218014 146.703959412C-74.218014 146.703959412 -68.912237 132.750889412 -68.912237 132.750889412C-68.912237 132.750889412 -65.480414 146.297559412 -65.480414 146.297559412C-65.480414 146.297559412 -64.532147 146.297559412 -64.532147 146.297559412" />
      <path
         id="path1872"
         style="font-size:85.33333588px;fill-opacity:1.0;font-variant-numeric:normal;letter-spacing:0px;word-spacing:0px;stroke:none;stroke-width:0.26458332;font-style:normal;fill:#c2b41d;font-stretch:normal;font-feature-settings:normal;font-weight:500;opacity:1.0;-inkscape-font-specification:'GeosansLight, Medium';font-variant:normal;font-variant-caps:normal;font-family:GeosansLight;text-align:start;font-variant-ligatures:normal;writing-mode:lr-tb;text-anchor:start;line-height:1.25"
         d="M-64.4833493333 146.278300196C-64.4833493333 146.278300196 -68.6828163333 129.661050196 -68.6828163333 129.661050196C-68.6828163333 129.661050196 -74.1692163333 144.065670196 -74.1692163333 144.065670196C-74.1692163333 144.065670196 -79.6556163333 129.683630196 -79.6556163333 129.683630196C-79.6556163333 129.683630196 -83.8550823333 146.278300196 -83.8550823333 146.278300196C-83.8550823333 146.278300196 -82.9293953333 146.278300196 -82.9293953333 146.278300196C-82.9293953333 146.278300196 -79.4749953333 132.709050196 -79.4749953333 132.709050196C-79.4749953333 132.709050196 -74.1692163333 146.684700196 -74.1692163333 146.684700196C-74.1692163333 146.684700196 -68.8634393333 132.731630196 -68.8634393333 132.731630196C-68.8634393333 132.731630196 -65.4316163333 146.278300196 -65.4316163333 146.278300196C-65.4316163333 146.278300196 -64.4833493333 146.278300196 -64.4833493333 146.278300196" />
      <path
         id="path1874"
         style="font-size:85.33333588px;fill-opacity:1.0;font-variant-numeric:normal;letter-spacing:0px;word-spacing:0px;stroke:none;stroke-width:0.26458332;font-style:normal;fill:#bdb21f;font-stretch:normal;font-feature-settings:normal;font-weight:500;opacity:1.0;-inkscape-font-specification:'GeosansLight, Medium';font-variant:normal;font-variant-caps:normal;font-family:GeosansLight;text-align:start;font-variant-ligatures:normal;writing-mode:lr-tb;text-anchor:start;line-height:1.25"
         d="M-64.4345516667 146.25904098C-64.4345516667 146.25904098 -68.6340186667 129.64179098 -68.6340186667 129.64179098C-68.6340186667 129.64179098 -74.1204186667 144.04641098 -74.1204186667 144.04641098C-74.1204186667 144.04641098 -79.6068186667 129.66437098 -79.6068186667 129.66437098C-79.6068186667 129.66437098 -83.8062846667 146.25904098 -83.8062846667 146.25904098C-83.8062846667 146.25904098 -82.8805976667 146.25904098 -82.8805976667 146.25904098C-82.8805976667 146.25904098 -79.4261976667 132.68979098 -79.4261976667 132.68979098C-79.4261976667 132.68979098 -74.1204186667 146.66544098 -74.1204186667 146.66544098C-74.1204186667 146.66544098 -68.8146416667 132.71237098 -68.8146416667 132.71237098C-68.8146416667 132.71237098 -65.3828186667 146.25904098 -65.3828186667 146.25904098C-65.3828186667 146.25904098 -64.4345516667 146.25904098 -64.4345516667 146.25904098" />
      <path
         id="path1876"
         style="font-size:85.33333588px;fill-opacity:1.0;font-variant-numeric:normal;letter-spacing:0px;word-spacing:0px;stroke:none;stroke-width:0.26458332;font-style:normal;fill:#b9af21;font-stretch:normal;font-feature-settings:normal;font-weight:500;opacity:1.0;-inkscape-font-specification:'GeosansLight, Medium';font-variant:normal;font-variant-caps:normal;font-family:GeosansLight;text-align:start;font-variant-ligatures:normal;writing-mode:lr-tb;text-anchor:start;line-height:1.25"
         d="M-64.385754 146.239781765C-64.385754 146.239781765 -68.585221 129.622531765 -68.585221 129.622531765C-68.585221 129.622531765 -74.071621 144.027151765 -74.071621 144.027151765C-74.071621 144.027151765 -79.558021 129.645111765 -79.558021 129.645111765C-79.558021 129.645111765 -83.757487 146.239781765 -83.757487 146.239781765C-83.757487 146.239781765 -82.8318 146.239781765 -82.8318 146.239781765C-82.8318 146.239781765 -79.3774 132.670531765 -79.3774 132.670531765C-79.3774 132.670531765 -74.071621 146.646181765 -74.071621 146.646181765C-74.071621 146.646181765 -68.765844 132.693111765 -68.765844 132.693111765C-68.765844 132.693111765 -65.334021 146.239781765 -65.334021 146.239781765C-65.334021 146.239781765 -64.385754 146.239781765 -64.385754 146.239781765" />
      <path
         id="path1878"
         style="font-size:85.33333588px;fill-opacity:1.0;font-variant-numeric:normal;letter-spacing:0px;word-spacing:0px;stroke:none;stroke-width:0.26458332;font-style:normal;fill:#b4ac24;font-stretch:normal;font-feature-settings:normal;font-weight:500;opacity:1.0;-inkscape-font-specification:'GeosansLight, Medium';font-variant:normal;font-variant-caps:normal;font-family:GeosansLight;text-align:start;font-variant-ligatures:normal;writing-mode:lr-tb;text-anchor:start;line-height:1.25"
         d="M-64.3369563333 146.220522549C-64.3369563333 146.220522549 -68.5364233333 129.603272549 -68.5364233333 129.603272549C-68.5364233333 129.603272549 -74.0228233333 144.007892549 -74.0228233333 144.007892549C-74.0228233333 144.007892549 -79.5092233333 129.625852549 -79.5092233333 129.625852549C-79.5092233333 129.625852549 -83.7086893333 146.220522549 -83.7086893333 146.220522549C-83.7086893333 146.220522549 -82.7830023333 146.220522549 -82.7830023333 146.220522549C-82.7830023333 146.220522549 -79.3286023333 132.651272549 -79.3286023333 132.651272549C-79.3286023333 132.651272549 -74.0228233333 146.626922549 -74.0228233333 146.626922549C-74.0228233333 146.626922549 -68.7170463333 132.673852549 -68.7170463333 132.673852549C-68.7170463333 132.673852549 -65.2852233333 146.220522549 -65.2852233333 146.220522549C-65.2852233333 146.220522549 -64.3369563333 146.220522549 -64.3369563333 146.220522549" />
      <path
         id="path1880"
         style="font-size:85.33333588px;fill-opacity:1.0;font-variant-numeric:normal;letter-spacing:0px;word-spacing:0px;stroke:none;stroke-width:0.26458332;font-style:normal;fill:#afaa26;font-stretch:normal;font-feature-settings:normal;font-weight:500;opacity:1.0;-inkscape-font-specification:'GeosansLight, Medium';font-variant:normal;font-variant-caps:normal;font-family:GeosansLight;text-align:start;font-variant-ligatures:normal;writing-mode:lr-tb;text-anchor:start;line-height:1.25"
         d="M-64.2881586667 146.201263333C-64.2881586667 146.201263333 -68.4876256667 129.584013333 -68.4876256667 129.584013333C-68.4876256667 129.584013333 -73.9740256667 143.988633333 -73.9740256667 143.988633333C-73.9740256667 143.988633333 -79.4604256667 129.606593333 -79.4604256667 129.606593333C-79.4604256667 129.606593333 -83.6598916667 146.201263333 -83.6598916667 146.201263333C-83.6598916667 146.201263333 -82.7342046667 146.201263333 -82.7342046667 146.201263333C-82.7342046667 146.201263333 -79.2798046667 132.632013333 -79.2798046667 132.632013333C-79.2798046667 132.632013333 -73.9740256667 146.607663333 -73.9740256667 146.607663333C-73.9740256667 146.607663333 -68.6682486667 132.654593333 -68.6682486667 132.654593333C-68.6682486667 132.654593333 -65.2364256667 146.201263333 -65.2364256667 146.201263333C-65.2364256667 146.201263333 -64.2881586667 146.201263333 -64.2881586667 146.201263333" />
      <path
         id="path1882"
         style="font-size:85.33333588px;fill-opacity:1.0;font-variant-numeric:normal;letter-spacing:0px;word-spacing:0px;stroke:none;stroke-width:0.26458332;font-style:normal;fill:#aba728;font-stretch:normal;font-feature-settings:normal;font-weight:500;opacity:1.0;-inkscape-font-specification:'GeosansLight, Medium';font-variant:normal;font-variant-caps:normal;font-family:GeosansLight;text-align:start;font-variant-ligatures:normal;writing-mode:lr-tb;text-anchor:start;line-height:1.25"
         d="M-64.239361 146.182004118C-64.239361 146.182004118 -68.438828 129.564754118 -68.438828 129.564754118C-68.438828 129.564754118 -73.925228 143.969374118 -73.925228 143.969374118C-73.925228 143.969374118 -79.411628 129.587334118 -79.411628 129.587334118C-79.411628 129.587334118 -83.611094 146.182004118 -83.611094 146.182004118C-83.611094 146.182004118 -82.685407 146.182004118 -82.685407 146.182004118C-82.685407 146.182004118 -79.231007 132.612754118 -79.231007 132.612754118C-79.231007 132.612754118 -73.925228 146.588404118 -73.925228 146.588404118C-73.925228 146.588404118 -68.619451 132.635334118 -68.619451 132.635334118C-68.619451 132.635334118 -65.187628 146.182004118 -65.187628 146.182004118C-65.187628 146.182004118 -64.239361 146.182004118 -64.239361 146.182004118" />
      <path
         id="path1884"
         style="font-size:85.33333588px;fill-opacity:1.0;font-variant-numeric:normal;letter-spacing:0px;word-spacing:0px;stroke:none;stroke-width:0.26458332;font-style:normal;fill:#a6a52a;font-stretch:normal;font-feature-settings:normal;font-weight:500;opacity:1.0;-inkscape-font-specification:'GeosansLight, Medium';font-variant:normal;font-variant-caps:normal;font-family:GeosansLight;text-align:start;font-variant-ligatures:normal;writing-mode:lr-tb;text-anchor:start;line-height:1.25"
         d="M-64.1905633333 146.162744902C-64.1905633333 146.162744902 -68.3900303333 129.545494902 -68.3900303333 129.545494902C-68.3900303333 129.545494902 -73.8764303333 143.950114902 -73.8764303333 143.950114902C-73.8764303333 143.950114902 -79.3628303333 129.568074902 -79.3628303333 129.568074902C-79.3628303333 129.568074902 -83.5622963333 146.162744902 -83.5622963333 146.162744902C-83.5622963333 146.162744902 -82.6366093333 146.162744902 -82.6366093333 146.162744902C-82.6366093333 146.162744902 -79.1822093333 132.593494902 -79.1822093333 132.593494902C-79.1822093333 132.593494902 -73.8764303333 146.569144902 -73.8764303333 146.569144902C-73.8764303333 146.569144902 -68.5706533333 132.616074902 -68.5706533333 132.616074902C-68.5706533333 132.616074902 -65.1388303333 146.162744902 -65.1388303333 146.162744902C-65.1388303333 146.162744902 -64.1905633333 146.162744902 -64.1905633333 146.162744902" />
      <path
         id="path1886"
         style="font-size:85.33333588px;fill-opacity:1.0;font-variant-numeric:normal;letter-spacing:0px;word-spacing:0px;stroke:none;stroke-width:0.26458332;font-style:normal;fill:#a1a22d;font-stretch:normal;font-feature-settings:normal;font-weight:500;opacity:1.0;-inkscape-font-specification:'GeosansLight, Medium';font-variant:normal;font-variant-caps:normal;font-family:GeosansLight;text-align:start;font-variant-ligatures:normal;writing-mode:lr-tb;text-anchor:start;line-height:1.25"
         d="M-64.1417656667 146.143485686C-64.1417656667 146.143485686 -68.3412326667 129.526235686 -68.3412326667 129.526235686C-68.3412326667 129.526235686 -73.8276326667 143.930855686 -73.8276326667 143.930855686C-73.8276326667 143.930855686 -79.3140326667 129.548815686 -79.3140326667 129.548815686C-79.3140326667 129.548815686 -83.5134986667 146.143485686 -83.5134986667 146.143485686C-83.5134986667 146.143485686 -82.5878116667 146.143485686 -82.5878116667 146.143485686C-82.5878116667 146.143485686 -79.1334116667 132.574235686 -79.1334116667 132.574235686C-79.1334116667 132.574235686 -73.8276326667 146.549885686 -73.8276326667 146.549885686C-73.8276326667 146.549885686 -68.5218556667 132.596815686 -68.5218556667 132.596815686C-68.5218556667 132.596815686 -65.0900326667 146.143485686 -65.0900326667 146.143485686C-65.0900326667 146.143485686 -64.1417656667 146.143485686 -64.1417656667 146.143485686" />
      <path
         id="path1888"
         style="font-size:85.33333588px;fill-opacity:1.0;font-variant-numeric:normal;letter-spacing:0px;word-spacing:0px;stroke:none;stroke-width:0.26458332;font-style:normal;fill:#9d9f2f;font-stretch:normal;font-feature-settings:normal;font-weight:500;opacity:1.0;-inkscape-font-specification:'GeosansLight, Medium';font-variant:normal;font-variant-caps:normal;font-family:GeosansLight;text-align:start;font-variant-ligatures:normal;writing-mode:lr-tb;text-anchor:start;line-height:1.25"
         d="M-64.092968 146.124226471C-64.092968 146.124226471 -68.292435 129.506976471 -68.292435 129.506976471C-68.292435 129.506976471 -73.778835 143.911596471 -73.778835 143.911596471C-73.778835 143.911596471 -79.265235 129.529556471 -79.265235 129.529556471C-79.265235 129.529556471 -83.464701 146.124226471 -83.464701 146.124226471C-83.464701 146.124226471 -82.539014 146.124226471 -82.539014 146.124226471C-82.539014 146.124226471 -79.084614 132.554976471 -79.084614 132.554976471C-79.084614 132.554976471 -73.778835 146.530626471 -73.778835 146.530626471C-73.778835 146.530626471 -68.473058 132.577556471 -68.473058 132.577556471C-68.473058 132.577556471 -65.041235 146.124226471 -65.041235 146.124226471C-65.041235 146.124226471 -64.092968 146.124226471 -64.092968 146.124226471" />
      <path
         id="path1890"
         style="font-size:85.33333588px;fill-opacity:1.0;font-variant-numeric:normal;letter-spacing:0px;word-spacing:0px;stroke:none;stroke-width:0.26458332;font-style:normal;fill:#989d31;font-stretch:normal;font-feature-settings:normal;font-weight:500;opacity:1.0;-inkscape-font-specification:'GeosansLight, Medium';font-variant:normal;font-variant-caps:normal;font-family:GeosansLight;text-align:start;font-variant-ligatures:normal;writing-mode:lr-tb;text-anchor:start;line-height:1.25"
         d="M-64.0441703333 146.104967255C-64.0441703333 146.104967255 -68.2436373333 129.487717255 -68.2436373333 129.487717255C-68.2436373333 129.487717255 -73.7300373333 143.892337255 -73.7300373333 143.892337255C-73.7300373333 143.892337255 -79.2164373333 129.510297255 -79.2164373333 129.510297255C-79.2164373333 129.510297255 -83.4159033333 146.104967255 -83.4159033333 146.104967255C-83.4159033333 146.104967255 -82.4902163333 146.104967255 -82.4902163333 146.104967255C-82.4902163333 146.104967255 -79.0358163333 132.535717255 -79.0358163333 132.535717255C-79.0358163333 132.535717255 -73.7300373333 146.511367255 -73.7300373333 146.511367255C-73.7300373333 146.511367255 -68.4242603333 132.558297255 -68.4242603333 132.558297255C-68.4242603333 132.558297255 -64.9924373333 146.104967255 -64.9924373333 146.104967255C-64.9924373333 146.104967255 -64.0441703333 146.104967255 -64.0441703333 146.104967255" />
      <path
         id="path1892"
         style="font-size:85.33333588px;fill-opacity:1.0;font-variant-numeric:normal;letter-spacing:0px;word-spacing:0px;stroke:none;stroke-width:0.26458332;font-style:normal;fill:#939a33;font-stretch:normal;font-feature-settings:normal;font-weight:500;opacity:1.0;-inkscape-font-specification:'GeosansLight, Medium';font-variant:normal;font-variant-caps:normal;font-family:GeosansLight;text-align:start;font-variant-ligatures:normal;writing-mode:lr-tb;text-anchor:start;line-height:1.25"
         d="M-63.9953726667 146.085708039C-63.9953726667 146.085708039 -68.1948396667 129.468458039 -68.1948396667 129.468458039C-68.1948396667 129.468458039 -73.6812396667 143.873078039 -73.6812396667 143.873078039C-73.6812396667 143.873078039 -79.1676396667 129.491038039 -79.1676396667 129.491038039C-79.1676396667 129.491038039 -83.3671056667 146.085708039 -83.3671056667 146.085708039C-83.3671056667 146.085708039 -82.4414186667 146.085708039 -82.4414186667 146.085708039C-82.4414186667 146.085708039 -78.9870186667 132.516458039 -78.9870186667 132.516458039C-78.9870186667 132.516458039 -73.6812396667 146.492108039 -73.6812396667 146.492108039C-73.6812396667 146.492108039 -68.3754626667 132.539038039 -68.3754626667 132.539038039C-68.3754626667 132.539038039 -64.9436396667 146.085708039 -64.9436396667 146.085708039C-64.9436396667 146.085708039 -63.9953726667 146.085708039 -63.9953726667 146.085708039" />
      <path
         id="path1894"
         style="font-size:85.33333588px;fill-opacity:1.0;font-variant-numeric:normal;letter-spacing:0px;word-spacing:0px;stroke:none;stroke-width:0.26458332;font-style:normal;fill:#8f9736;font-stretch:normal;font-feature-settings:normal;font-weight:500;opacity:1.0;-inkscape-font-specification:'GeosansLight, Medium';font-variant:normal;font-variant-caps:normal;font-family:GeosansLight;text-align:start;font-variant-ligatures:normal;writing-mode:lr-tb;text-anchor:start;line-height:1.25"
         d="M-63.946575 146.066448824C-63.946575 146.066448824 -68.146042 129.449198824 -68.146042 129.449198824C-68.146042 129.449198824 -73.632442 143.853818824 -73.632442 143.853818824C-73.632442 143.853818824 -79.118842 129.471778824 -79.118842 129.471778824C-79.118842 129.471778824 -83.318308 146.066448824 -83.318308 146.066448824C-83.318308 146.066448824 -82.392621 146.066448824 -82.392621 146.066448824C-82.392621 146.066448824 -78.938221 132.497198824 -78.938221 132.497198824C-78.938221 132.497198824 -73.632442 146.472848824 -73.632442 146.472848824C-73.632442 146.472848824 -68.326665 132.519778824 -68.326665 132.519778824C-68.326665 132.519778824 -64.894842 146.066448824 -64.894842 146.066448824C-64.894842 146.066448824 -63.946575 146.066448824 -63.946575 146.066448824" />
      <path
         id="path1896"
         style="font-size:85.33333588px;fill-opacity:1.0;font-variant-numeric:normal;letter-spacing:0px;word-spacing:0px;stroke:none;stroke-width:0.26458332;font-style:normal;fill:#8a9538;font-stretch:normal;font-feature-settings:normal;font-weight:500;opacity:1.0;-inkscape-font-specification:'GeosansLight, Medium';font-variant:normal;font-variant-caps:normal;font-family:GeosansLight;text-align:start;font-variant-ligatures:normal;writing-mode:lr-tb;text-anchor:start;line-height:1.25"
         d="M-63.8977773333 146.047189608C-63.8977773333 146.047189608 -68.0972443333 129.429939608 -68.0972443333 129.429939608C-68.0972443333 129.429939608 -73.5836443333 143.834559608 -73.5836443333 143.834559608C-73.5836443333 143.834559608 -79.0700443333 129.452519608 -79.0700443333 129.452519608C-79.0700443333 129.452519608 -83.2695103333 146.047189608 -83.2695103333 146.047189608C-83.2695103333 146.047189608 -82.3438233333 146.047189608 -82.3438233333 146.047189608C-82.3438233333 146.047189608 -78.8894233333 132.477939608 -78.8894233333 132.477939608C-78.8894233333 132.477939608 -73.5836443333 146.453589608 -73.5836443333 146.453589608C-73.5836443333 146.453589608 -68.2778673333 132.500519608 -68.2778673333 132.500519608C-68.2778673333 132.500519608 -64.8460443333 146.047189608 -64.8460443333 146.047189608C-64.8460443333 146.047189608 -63.8977773333 146.047189608 -63.8977773333 146.047189608" />
      <path
         id="path1898"
         style="font-size:85.33333588px;fill-opacity:1.0;font-variant-numeric:normal;letter-spacing:0px;word-spacing:0px;stroke:none;stroke-width:0.26458332;font-style:normal;fill:#85923a;font-stretch:normal;font-feature-settings:normal;font-weight:500;opacity:1.0;-inkscape-font-specification:'GeosansLight, Medium';font-variant:normal;font-variant-caps:normal;font-family:GeosansLight;text-align:start;font-variant-ligatures:normal;writing-mode:lr-tb;text-anchor:start;line-height:1.25"
         d="M-63.8489796667 146.027930392C-63.8489796667 146.027930392 -68.0484466667 129.410680392 -68.0484466667 129.410680392C-68.0484466667 129.410680392 -73.5348466667 143.815300392 -73.5348466667 143.815300392C-73.5348466667 143.815300392 -79.0212466667 129.433260392 -79.0212466667 129.433260392C-79.0212466667 129.433260392 -83.2207126667 146.027930392 -83.2207126667 146.027930392C-83.2207126667 146.027930392 -82.2950256667 146.027930392 -82.2950256667 146.027930392C-82.2950256667 146.027930392 -78.8406256667 132.458680392 -78.8406256667 132.458680392C-78.8406256667 132.458680392 -73.5348466667 146.434330392 -73.5348466667 146.434330392C-73.5348466667 146.434330392 -68.2290696667 132.481260392 -68.2290696667 132.481260392C-68.2290696667 132.481260392 -64.7972466667 146.027930392 -64.7972466667 146.027930392C-64.7972466667 146.027930392 -63.8489796667 146.027930392 -63.8489796667 146.027930392" />
      <path
         id="path1900"
         style="font-size:85.33333588px;fill-opacity:1.0;font-variant-numeric:normal;letter-spacing:0px;word-spacing:0px;stroke:none;stroke-width:0.26458332;font-style:normal;fill:#81903c;font-stretch:normal;font-feature-settings:normal;font-weight:500;opacity:1.0;-inkscape-font-specification:'GeosansLight, Medium';font-variant:normal;font-variant-caps:normal;font-family:GeosansLight;text-align:start;font-variant-ligatures:normal;writing-mode:lr-tb;text-anchor:start;line-height:1.25"
         d="M-63.800182 146.008671176C-63.800182 146.008671176 -67.999649 129.391421176 -67.999649 129.391421176C-67.999649 129.391421176 -73.486049 143.796041176 -73.486049 143.796041176C-73.486049 143.796041176 -78.972449 129.414001176 -78.972449 129.414001176C-78.972449 129.414001176 -83.171915 146.008671176 -83.171915 146.008671176C-83.171915 146.008671176 -82.246228 146.008671176 -82.246228 146.008671176C-82.246228 146.008671176 -78.791828 132.439421176 -78.791828 132.439421176C-78.791828 132.439421176 -73.486049 146.415071176 -73.486049 146.415071176C-73.486049 146.415071176 -68.180272 132.462001176 -68.180272 132.462001176C-68.180272 132.462001176 -64.748449 146.008671176 -64.748449 146.008671176C-64.748449 146.008671176 -63.800182 146.008671176 -63.800182 146.008671176" />
      <path
         id="path1902"
         style="font-size:85.33333588px;fill-opacity:1.0;font-variant-numeric:normal;letter-spacing:0px;word-spacing:0px;stroke:none;stroke-width:0.26458332;font-style:normal;fill:#7c8d3f;font-stretch:normal;font-feature-settings:normal;font-weight:500;opacity:1.0;-inkscape-font-specification:'GeosansLight, Medium';font-variant:normal;font-variant-caps:normal;font-family:GeosansLight;text-align:start;font-variant-ligatures:normal;writing-mode:lr-tb;text-anchor:start;line-height:1.25"
         d="M-63.7513843333 145.989411961C-63.7513843333 145.989411961 -67.9508513333 129.372161961 -67.9508513333 129.372161961C-67.9508513333 129.372161961 -73.4372513333 143.776781961 -73.4372513333 143.776781961C-73.4372513333 143.776781961 -78.9236513333 129.394741961 -78.9236513333 129.394741961C-78.9236513333 129.394741961 -83.1231173333 145.989411961 -83.1231173333 145.989411961C-83.1231173333 145.989411961 -82.1974303333 145.989411961 -82.1974303333 145.989411961C-82.1974303333 145.989411961 -78.7430303333 132.420161961 -78.7430303333 132.420161961C-78.7430303333 132.420161961 -73.4372513333 146.395811961 -73.4372513333 146.395811961C-73.4372513333 146.395811961 -68.1314743333 132.442741961 -68.1314743333 132.442741961C-68.1314743333 132.442741961 -64.6996513333 145.989411961 -64.6996513333 145.989411961C-64.6996513333 145.989411961 -63.7513843333 145.989411961 -63.7513843333 145.989411961" />
      <path
         id="path1904"
         style="font-size:85.33333588px;fill-opacity:1.0;font-variant-numeric:normal;letter-spacing:0px;word-spacing:0px;stroke:none;stroke-width:0.26458332;font-style:normal;fill:#778a41;font-stretch:normal;font-feature-settings:normal;font-weight:500;opacity:1.0;-inkscape-font-specification:'GeosansLight, Medium';font-variant:normal;font-variant-caps:normal;font-family:GeosansLight;text-align:start;font-variant-ligatures:normal;writing-mode:lr-tb;text-anchor:start;line-height:1.25"
         d="M-63.7025866667 145.970152745C-63.7025866667 145.970152745 -67.9020536667 129.352902745 -67.9020536667 129.352902745C-67.9020536667 129.352902745 -73.3884536667 143.757522745 -73.3884536667 143.757522745C-73.3884536667 143.757522745 -78.8748536667 129.375482745 -78.8748536667 129.375482745C-78.8748536667 129.375482745 -83.0743196667 145.970152745 -83.0743196667 145.970152745C-83.0743196667 145.970152745 -82.1486326667 145.970152745 -82.1486326667 145.970152745C-82.1486326667 145.970152745 -78.6942326667 132.400902745 -78.6942326667 132.400902745C-78.6942326667 132.400902745 -73.3884536667 146.376552745 -73.3884536667 146.376552745C-73.3884536667 146.376552745 -68.0826766667 132.423482745 -68.0826766667 132.423482745C-68.0826766667 132.423482745 -64.6508536667 145.970152745 -64.6508536667 145.970152745C-64.6508536667 145.970152745 -63.7025866667 145.970152745 -63.7025866667 145.970152745" />
      <path
         id="path1906"
         style="font-size:85.33333588px;fill-opacity:1.0;font-variant-numeric:normal;letter-spacing:0px;word-spacing:0px;stroke:none;stroke-width:0.26458332;font-style:normal;fill:#738843;font-stretch:normal;font-feature-settings:normal;font-weight:500;opacity:1.0;-inkscape-font-specification:'GeosansLight, Medium';font-variant:normal;font-variant-caps:normal;font-family:GeosansLight;text-align:start;font-variant-ligatures:normal;writing-mode:lr-tb;text-anchor:start;line-height:1.25"
         d="M-63.653789 145.950893529C-63.653789 145.950893529 -67.853256 129.333643529 -67.853256 129.333643529C-67.853256 129.333643529 -73.339656 143.738263529 -73.339656 143.738263529C-73.339656 143.738263529 -78.826056 129.356223529 -78.826056 129.356223529C-78.826056 129.356223529 -83.025522 145.950893529 -83.025522 145.950893529C-83.025522 145.950893529 -82.099835 145.950893529 -82.099835 145.950893529C-82.099835 145.950893529 -78.645435 132.381643529 -78.645435 132.381643529C-78.645435 132.381643529 -73.339656 146.357293529 -73.339656 146.357293529C-73.339656 146.357293529 -68.033879 132.404223529 -68.033879 132.404223529C-68.033879 132.404223529 -64.602056 145.950893529 -64.602056 145.950893529C-64.602056 145.950893529 -63.653789 145.950893529 -63.653789 145.950893529" />
      <path
         id="path1908"
         style="font-size:85.33333588px;fill-opacity:1.0;font-variant-numeric:normal;letter-spacing:0px;word-spacing:0px;stroke:none;stroke-width:0.26458332;font-style:normal;fill:#6e8545;font-stretch:normal;font-feature-settings:normal;font-weight:500;opacity:1.0;-inkscape-font-specification:'GeosansLight, Medium';font-variant:normal;font-variant-caps:normal;font-family:GeosansLight;text-align:start;font-variant-ligatures:normal;writing-mode:lr-tb;text-anchor:start;line-height:1.25"
         d="M-63.6049913333 145.931634314C-63.6049913333 145.931634314 -67.8044583333 129.314384314 -67.8044583333 129.314384314C-67.8044583333 129.314384314 -73.2908583333 143.719004314 -73.2908583333 143.719004314C-73.2908583333 143.719004314 -78.7772583333 129.336964314 -78.7772583333 129.336964314C-78.7772583333 129.336964314 -82.9767243333 145.931634314 -82.9767243333 145.931634314C-82.9767243333 145.931634314 -82.0510373333 145.931634314 -82.0510373333 145.931634314C-82.0510373333 145.931634314 -78.5966373333 132.362384314 -78.5966373333 132.362384314C-78.5966373333 132.362384314 -73.2908583333 146.338034314 -73.2908583333 146.338034314C-73.2908583333 146.338034314 -67.9850813333 132.384964314 -67.9850813333 132.384964314C-67.9850813333 132.384964314 -64.5532583333 145.931634314 -64.5532583333 145.931634314C-64.5532583333 145.931634314 -63.6049913333 145.931634314 -63.6049913333 145.931634314" />
      <path
         id="path1910"
         style="font-size:85.33333588px;fill-opacity:1.0;font-variant-numeric:normal;letter-spacing:0px;word-spacing:0px;stroke:none;stroke-width:0.26458332;font-style:normal;fill:#698248;font-stretch:normal;font-feature-settings:normal;font-weight:500;opacity:1.0;-inkscape-font-specification:'GeosansLight, Medium';font-variant:normal;font-variant-caps:normal;font-family:GeosansLight;text-align:start;font-variant-ligatures:normal;writing-mode:lr-tb;text-anchor:start;line-height:1.25"
         d="M-63.5561936667 145.912375098C-63.5561936667 145.912375098 -67.7556606667 129.295125098 -67.7556606667 129.295125098C-67.7556606667 129.295125098 -73.2420606667 143.699745098 -73.2420606667 143.699745098C-73.2420606667 143.699745098 -78.7284606667 129.317705098 -78.7284606667 129.317705098C-78.7284606667 129.317705098 -82.9279266667 145.912375098 -82.9279266667 145.912375098C-82.9279266667 145.912375098 -82.0022396667 145.912375098 -82.0022396667 145.912375098C-82.0022396667 145.912375098 -78.5478396667 132.343125098 -78.5478396667 132.343125098C-78.5478396667 132.343125098 -73.2420606667 146.318775098 -73.2420606667 146.318775098C-73.2420606667 146.318775098 -67.9362836667 132.365705098 -67.9362836667 132.365705098C-67.9362836667 132.365705098 -64.5044606667 145.912375098 -64.5044606667 145.912375098C-64.5044606667 145.912375098 -63.5561936667 145.912375098 -63.5561936667 145.912375098" />
      <path
         id="path1912"
         style="font-size:85.33333588px;fill-opacity:1.0;font-variant-numeric:normal;letter-spacing:0px;word-spacing:0px;stroke:none;stroke-width:0.26458332;font-style:normal;fill:#65804a;font-stretch:normal;font-feature-settings:normal;font-weight:500;opacity:1.0;-inkscape-font-specification:'GeosansLight, Medium';font-variant:normal;font-variant-caps:normal;font-family:GeosansLight;text-align:start;font-variant-ligatures:normal;writing-mode:lr-tb;text-anchor:start;line-height:1.25"
         d="M-63.507396 145.893115882C-63.507396 145.893115882 -67.706863 129.275865882 -67.706863 129.275865882C-67.706863 129.275865882 -73.193263 143.680485882 -73.193263 143.680485882C-73.193263 143.680485882 -78.679663 129.298445882 -78.679663 129.298445882C-78.679663 129.298445882 -82.879129 145.893115882 -82.879129 145.893115882C-82.879129 145.893115882 -81.953442 145.893115882 -81.953442 145.893115882C-81.953442 145.893115882 -78.499042 132.323865882 -78.499042 132.323865882C-78.499042 132.323865882 -73.193263 146.299515882 -73.193263 146.299515882C-73.193263 146.299515882 -67.887486 132.346445882 -67.887486 132.346445882C-67.887486 132.346445882 -64.455663 145.893115882 -64.455663 145.893115882C-64.455663 145.893115882 -63.507396 145.893115882 -63.507396 145.893115882" />
      <path
         id="path1914"
         style="font-size:85.33333588px;fill-opacity:1.0;font-variant-numeric:normal;letter-spacing:0px;word-spacing:0px;stroke:none;stroke-width:0.26458332;font-style:normal;fill:#607d4c;font-stretch:normal;font-feature-settings:normal;font-weight:500;opacity:1.0;-inkscape-font-specification:'GeosansLight, Medium';font-variant:normal;font-variant-caps:normal;font-family:GeosansLight;text-align:start;font-variant-ligatures:normal;writing-mode:lr-tb;text-anchor:start;line-height:1.25"
         d="M-63.4585983333 145.873856667C-63.4585983333 145.873856667 -67.6580653333 129.256606667 -67.6580653333 129.256606667C-67.6580653333 129.256606667 -73.1444653333 143.661226667 -73.1444653333 143.661226667C-73.1444653333 143.661226667 -78.6308653333 129.279186667 -78.6308653333 129.279186667C-78.6308653333 129.279186667 -82.8303313333 145.873856667 -82.8303313333 145.873856667C-82.8303313333 145.873856667 -81.9046443333 145.873856667 -81.9046443333 145.873856667C-81.9046443333 145.873856667 -78.4502443333 132.304606667 -78.4502443333 132.304606667C-78.4502443333 132.304606667 -73.1444653333 146.280256667 -73.1444653333 146.280256667C-73.1444653333 146.280256667 -67.8386883333 132.327186667 -67.8386883333 132.327186667C-67.8386883333 132.327186667 -64.4068653333 145.873856667 -64.4068653333 145.873856667C-64.4068653333 145.873856667 -63.4585983333 145.873856667 -63.4585983333 145.873856667" />
      <path
         id="path1916"
         style="font-size:85.33333588px;fill-opacity:1.0;font-variant-numeric:normal;letter-spacing:0px;word-spacing:0px;stroke:none;stroke-width:0.26458332;font-style:normal;fill:#5b7b4e;font-stretch:normal;font-feature-settings:normal;font-weight:500;opacity:1.0;-inkscape-font-specification:'GeosansLight, Medium';font-variant:normal;font-variant-caps:normal;font-family:GeosansLight;text-align:start;font-variant-ligatures:normal;writing-mode:lr-tb;text-anchor:start;line-height:1.25"
         d="M-63.4098006667 145.854597451C-63.4098006667 145.854597451 -67.6092676667 129.237347451 -67.6092676667 129.237347451C-67.6092676667 129.237347451 -73.0956676667 143.641967451 -73.0956676667 143.641967451C-73.0956676667 143.641967451 -78.5820676667 129.259927451 -78.5820676667 129.259927451C-78.5820676667 129.259927451 -82.7815336667 145.854597451 -82.7815336667 145.854597451C-82.7815336667 145.854597451 -81.8558466667 145.854597451 -81.8558466667 145.854597451C-81.8558466667 145.854597451 -78.4014466667 132.285347451 -78.4014466667 132.285347451C-78.4014466667 132.285347451 -73.0956676667 146.260997451 -73.0956676667 146.260997451C-73.0956676667 146.260997451 -67.7898906667 132.307927451 -67.7898906667 132.307927451C-67.7898906667 132.307927451 -64.3580676667 145.854597451 -64.3580676667 145.854597451C-64.3580676667 145.854597451 -63.4098006667 145.854597451 -63.4098006667 145.854597451" />
      <path
         id="path1918"
         style="font-size:85.33333588px;fill-opacity:1.0;font-variant-numeric:normal;letter-spacing:0px;word-spacing:0px;stroke:none;stroke-width:0.26458332;font-style:normal;fill:#567851;font-stretch:normal;font-feature-settings:normal;font-weight:500;opacity:1.0;-inkscape-font-specification:'GeosansLight, Medium';font-variant:normal;font-variant-caps:normal;font-family:GeosansLight;text-align:start;font-variant-ligatures:normal;writing-mode:lr-tb;text-anchor:start;line-height:1.25"
         d="M-63.361003 145.835338235C-63.361003 145.835338235 -67.56047 129.218088235 -67.56047 129.218088235C-67.56047 129.218088235 -73.04687 143.622708235 -73.04687 143.622708235C-73.04687 143.622708235 -78.53327 129.240668235 -78.53327 129.240668235C-78.53327 129.240668235 -82.732736 145.835338235 -82.732736 145.835338235C-82.732736 145.835338235 -81.807049 145.835338235 -81.807049 145.835338235C-81.807049 145.835338235 -78.352649 132.266088235 -78.352649 132.266088235C-78.352649 132.266088235 -73.04687 146.241738235 -73.04687 146.241738235C-73.04687 146.241738235 -67.741093 132.288668235 -67.741093 132.288668235C-67.741093 132.288668235 -64.30927 145.835338235 -64.30927 145.835338235C-64.30927 145.835338235 -63.361003 145.835338235 -63.361003 145.835338235" />
      <path
         id="path1920"
         style="font-size:85.33333588px;fill-opacity:1.0;font-variant-numeric:normal;letter-spacing:0px;word-spacing:0px;stroke:none;stroke-width:0.26458332;font-style:normal;fill:#527553;font-stretch:normal;font-feature-settings:normal;font-weight:500;opacity:1.0;-inkscape-font-specification:'GeosansLight, Medium';font-variant:normal;font-variant-caps:normal;font-family:GeosansLight;text-align:start;font-variant-ligatures:normal;writing-mode:lr-tb;text-anchor:start;line-height:1.25"
         d="M-63.3122053333 145.81607902C-63.3122053333 145.81607902 -67.5116723333 129.19882902 -67.5116723333 129.19882902C-67.5116723333 129.19882902 -72.9980723333 143.60344902 -72.9980723333 143.60344902C-72.9980723333 143.60344902 -78.4844723333 129.22140902 -78.4844723333 129.22140902C-78.4844723333 129.22140902 -82.6839383333 145.81607902 -82.6839383333 145.81607902C-82.6839383333 145.81607902 -81.7582513333 145.81607902 -81.7582513333 145.81607902C-81.7582513333 145.81607902 -78.3038513333 132.24682902 -78.3038513333 132.24682902C-78.3038513333 132.24682902 -72.9980723333 146.22247902 -72.9980723333 146.22247902C-72.9980723333 146.22247902 -67.6922953333 132.26940902 -67.6922953333 132.26940902C-67.6922953333 132.26940902 -64.2604723333 145.81607902 -64.2604723333 145.81607902C-64.2604723333 145.81607902 -63.3122053333 145.81607902 -63.3122053333 145.81607902" />
      <path
         id="path1922"
         style="font-size:85.33333588px;fill-opacity:1.0;font-variant-numeric:normal;letter-spacing:0px;word-spacing:0px;stroke:none;stroke-width:0.26458332;font-style:normal;fill:#4d7355;font-stretch:normal;font-feature-settings:normal;font-weight:500;opacity:1.0;-inkscape-font-specification:'GeosansLight, Medium';font-variant:normal;font-variant-caps:normal;font-family:GeosansLight;text-align:start;font-variant-ligatures:normal;writing-mode:lr-tb;text-anchor:start;line-height:1.25"
         d="M-63.2634076667 145.796819804C-63.2634076667 145.796819804 -67.4628746667 129.179569804 -67.4628746667 129.179569804C-67.4628746667 129.179569804 -72.9492746667 143.584189804 -72.9492746667 143.584189804C-72.9492746667 143.584189804 -78.4356746667 129.202149804 -78.4356746667 129.202149804C-78.4356746667 129.202149804 -82.6351406667 145.796819804 -82.6351406667 145.796819804C-82.6351406667 145.796819804 -81.7094536667 145.796819804 -81.7094536667 145.796819804C-81.7094536667 145.796819804 -78.2550536667 132.227569804 -78.2550536667 132.227569804C-78.2550536667 132.227569804 -72.9492746667 146.203219804 -72.9492746667 146.203219804C-72.9492746667 146.203219804 -67.6434976667 132.250149804 -67.6434976667 132.250149804C-67.6434976667 132.250149804 -64.2116746667 145.796819804 -64.2116746667 145.796819804C-64.2116746667 145.796819804 -63.2634076667 145.796819804 -63.2634076667 145.796819804" />
      <path
         id="path1924"
         style="font-size:85.33333588px;fill-opacity:1.0;font-variant-numeric:normal;letter-spacing:0px;word-spacing:0px;stroke:none;stroke-width:0.26458332;font-style:normal;fill:#487057;font-stretch:normal;font-feature-settings:normal;font-weight:500;opacity:1.0;-inkscape-font-specification:'GeosansLight, Medium';font-variant:normal;font-variant-caps:normal;font-family:GeosansLight;text-align:start;font-variant-ligatures:normal;writing-mode:lr-tb;text-anchor:start;line-height:1.25"
         d="M-63.21461 145.777560588C-63.21461 145.777560588 -67.414077 129.160310588 -67.414077 129.160310588C-67.414077 129.160310588 -72.900477 143.564930588 -72.900477 143.564930588C-72.900477 143.564930588 -78.386877 129.182890588 -78.386877 129.182890588C-78.386877 129.182890588 -82.586343 145.777560588 -82.586343 145.777560588C-82.586343 145.777560588 -81.660656 145.777560588 -81.660656 145.777560588C-81.660656 145.777560588 -78.206256 132.208310588 -78.206256 132.208310588C-78.206256 132.208310588 -72.900477 146.183960588 -72.900477 146.183960588C-72.900477 146.183960588 -67.5947 132.230890588 -67.5947 132.230890588C-67.5947 132.230890588 -64.162877 145.777560588 -64.162877 145.777560588C-64.162877 145.777560588 -63.21461 145.777560588 -63.21461 145.777560588" />
      <path
         id="path1926"
         style="font-size:85.33333588px;fill-opacity:1.0;font-variant-numeric:normal;letter-spacing:0px;word-spacing:0px;stroke:none;stroke-width:0.26458332;font-style:normal;fill:#446d5a;font-stretch:normal;font-feature-settings:normal;font-weight:500;opacity:1.0;-inkscape-font-specification:'GeosansLight, Medium';font-variant:normal;font-variant-caps:normal;font-family:GeosansLight;text-align:start;font-variant-ligatures:normal;writing-mode:lr-tb;text-anchor:start;line-height:1.25"
         d="M-63.1658123333 145.758301373C-63.1658123333 145.758301373 -67.3652793333 129.141051373 -67.3652793333 129.141051373C-67.3652793333 129.141051373 -72.8516793333 143.545671373 -72.8516793333 143.545671373C-72.8516793333 143.545671373 -78.3380793333 129.163631373 -78.3380793333 129.163631373C-78.3380793333 129.163631373 -82.5375453333 145.758301373 -82.5375453333 145.758301373C-82.5375453333 145.758301373 -81.6118583333 145.758301373 -81.6118583333 145.758301373C-81.6118583333 145.758301373 -78.1574583333 132.189051373 -78.1574583333 132.189051373C-78.1574583333 132.189051373 -72.8516793333 146.164701373 -72.8516793333 146.164701373C-72.8516793333 146.164701373 -67.5459023333 132.211631373 -67.5459023333 132.211631373C-67.5459023333 132.211631373 -64.1140793333 145.758301373 -64.1140793333 145.758301373C-64.1140793333 145.758301373 -63.1658123333 145.758301373 -63.1658123333 145.758301373" />
      <path
         id="path1928"
         style="font-size:85.33333588px;fill-opacity:1.0;font-variant-numeric:normal;letter-spacing:0px;word-spacing:0px;stroke:none;stroke-width:0.26458332;font-style:normal;fill:#3f6b5c;font-stretch:normal;font-feature-settings:normal;font-weight:500;opacity:1.0;-inkscape-font-specification:'GeosansLight, Medium';font-variant:normal;font-variant-caps:normal;font-family:GeosansLight;text-align:start;font-variant-ligatures:normal;writing-mode:lr-tb;text-anchor:start;line-height:1.25"
         d="M-63.1170146667 145.739042157C-63.1170146667 145.739042157 -67.3164816667 129.121792157 -67.3164816667 129.121792157C-67.3164816667 129.121792157 -72.8028816667 143.526412157 -72.8028816667 143.526412157C-72.8028816667 143.526412157 -78.2892816667 129.144372157 -78.2892816667 129.144372157C-78.2892816667 129.144372157 -82.4887476667 145.739042157 -82.4887476667 145.739042157C-82.4887476667 145.739042157 -81.5630606667 145.739042157 -81.5630606667 145.739042157C-81.5630606667 145.739042157 -78.1086606667 132.169792157 -78.1086606667 132.169792157C-78.1086606667 132.169792157 -72.8028816667 146.145442157 -72.8028816667 146.145442157C-72.8028816667 146.145442157 -67.4971046667 132.192372157 -67.4971046667 132.192372157C-67.4971046667 132.192372157 -64.0652816667 145.739042157 -64.0652816667 145.739042157C-64.0652816667 145.739042157 -63.1170146667 145.739042157 -63.1170146667 145.739042157" />
      <path
         id="path1930"
         style="font-size:85.33333588px;fill-opacity:1.0;font-variant-numeric:normal;letter-spacing:0px;word-spacing:0px;stroke:none;stroke-width:0.26458332;font-style:normal;fill:#3a685e;font-stretch:normal;font-feature-settings:normal;font-weight:500;opacity:1.0;-inkscape-font-specification:'GeosansLight, Medium';font-variant:normal;font-variant-caps:normal;font-family:GeosansLight;text-align:start;font-variant-ligatures:normal;writing-mode:lr-tb;text-anchor:start;line-height:1.25"
         d="M-63.068217 145.719782941C-63.068217 145.719782941 -67.267684 129.102532941 -67.267684 129.102532941C-67.267684 129.102532941 -72.754084 143.507152941 -72.754084 143.507152941C-72.754084 143.507152941 -78.240484 129.125112941 -78.240484 129.125112941C-78.240484 129.125112941 -82.43995 145.719782941 -82.43995 145.719782941C-82.43995 145.719782941 -81.514263 145.719782941 -81.514263 145.719782941C-81.514263 145.719782941 -78.059863 132.150532941 -78.059863 132.150532941C-78.059863 132.150532941 -72.754084 146.126182941 -72.754084 146.126182941C-72.754084 146.126182941 -67.448307 132.173112941 -67.448307 132.173112941C-67.448307 132.173112941 -64.016484 145.719782941 -64.016484 145.719782941C-64.016484 145.719782941 -63.068217 145.719782941 -63.068217 145.719782941" />
      <path
         id="path1932"
         style="font-size:85.33333588px;fill-opacity:1.0;font-variant-numeric:normal;letter-spacing:0px;word-spacing:0px;stroke:none;stroke-width:0.26458332;font-style:normal;fill:#366660;font-stretch:normal;font-feature-settings:normal;font-weight:500;opacity:1.0;-inkscape-font-specification:'GeosansLight, Medium';font-variant:normal;font-variant-caps:normal;font-family:GeosansLight;text-align:start;font-variant-ligatures:normal;writing-mode:lr-tb;text-anchor:start;line-height:1.25"
         d="M-63.0194193333 145.700523725C-63.0194193333 145.700523725 -67.2188863333 129.083273725 -67.2188863333 129.083273725C-67.2188863333 129.083273725 -72.7052863333 143.487893725 -72.7052863333 143.487893725C-72.7052863333 143.487893725 -78.1916863333 129.105853725 -78.1916863333 129.105853725C-78.1916863333 129.105853725 -82.3911523333 145.700523725 -82.3911523333 145.700523725C-82.3911523333 145.700523725 -81.4654653333 145.700523725 -81.4654653333 145.700523725C-81.4654653333 145.700523725 -78.0110653333 132.131273725 -78.0110653333 132.131273725C-78.0110653333 132.131273725 -72.7052863333 146.106923725 -72.7052863333 146.106923725C-72.7052863333 146.106923725 -67.3995093333 132.153853725 -67.3995093333 132.153853725C-67.3995093333 132.153853725 -63.9676863333 145.700523725 -63.9676863333 145.700523725C-63.9676863333 145.700523725 -63.0194193333 145.700523725 -63.0194193333 145.700523725" />
      <path
         id="path1934"
         style="font-size:85.33333588px;fill-opacity:1.0;font-variant-numeric:normal;letter-spacing:0px;word-spacing:0px;stroke:none;stroke-width:0.26458332;font-style:normal;fill:#316363;font-stretch:normal;font-feature-settings:normal;font-weight:500;opacity:1.0;-inkscape-font-specification:'GeosansLight, Medium';font-variant:normal;font-variant-caps:normal;font-family:GeosansLight;text-align:start;font-variant-ligatures:normal;writing-mode:lr-tb;text-anchor:start;line-height:1.25"
         d="M-62.9706216667 145.68126451C-62.9706216667 145.68126451 -67.1700886667 129.06401451 -67.1700886667 129.06401451C-67.1700886667 129.06401451 -72.6564886667 143.46863451 -72.6564886667 143.46863451C-72.6564886667 143.46863451 -78.1428886667 129.08659451 -78.1428886667 129.08659451C-78.1428886667 129.08659451 -82.3423546667 145.68126451 -82.3423546667 145.68126451C-82.3423546667 145.68126451 -81.4166676667 145.68126451 -81.4166676667 145.68126451C-81.4166676667 145.68126451 -77.9622676667 132.11201451 -77.9622676667 132.11201451C-77.9622676667 132.11201451 -72.6564886667 146.08766451 -72.6564886667 146.08766451C-72.6564886667 146.08766451 -67.3507116667 132.13459451 -67.3507116667 132.13459451C-67.3507116667 132.13459451 -63.9188886667 145.68126451 -63.9188886667 145.68126451C-63.9188886667 145.68126451 -62.9706216667 145.68126451 -62.9706216667 145.68126451" />
      <path
         id="path1936"
         style="font-size:85.33333588px;fill-opacity:1.0;font-variant-numeric:normal;letter-spacing:0px;word-spacing:0px;stroke:none;stroke-width:0.26458332;font-style:normal;fill:#2c6065;font-stretch:normal;font-feature-settings:normal;font-weight:500;opacity:1.0;-inkscape-font-specification:'GeosansLight, Medium';font-variant:normal;font-variant-caps:normal;font-family:GeosansLight;text-align:start;font-variant-ligatures:normal;writing-mode:lr-tb;text-anchor:start;line-height:1.25"
         d="M-62.921824 145.662005294C-62.921824 145.662005294 -67.121291 129.044755294 -67.121291 129.044755294C-67.121291 129.044755294 -72.607691 143.449375294 -72.607691 143.449375294C-72.607691 143.449375294 -78.094091 129.067335294 -78.094091 129.067335294C-78.094091 129.067335294 -82.293557 145.662005294 -82.293557 145.662005294C-82.293557 145.662005294 -81.36787 145.662005294 -81.36787 145.662005294C-81.36787 145.662005294 -77.91347 132.092755294 -77.91347 132.092755294C-77.91347 132.092755294 -72.607691 146.068405294 -72.607691 146.068405294C-72.607691 146.068405294 -67.301914 132.115335294 -67.301914 132.115335294C-67.301914 132.115335294 -63.870091 145.662005294 -63.870091 145.662005294C-63.870091 145.662005294 -62.921824 145.662005294 -62.921824 145.662005294" />
      <path
         id="path1938"
         style="font-size:85.33333588px;fill-opacity:1.0;font-variant-numeric:normal;letter-spacing:0px;word-spacing:0px;stroke:none;stroke-width:0.26458332;font-style:normal;fill:#285e67;font-stretch:normal;font-feature-settings:normal;font-weight:500;opacity:1.0;-inkscape-font-specification:'GeosansLight, Medium';font-variant:normal;font-variant-caps:normal;font-family:GeosansLight;text-align:start;font-variant-ligatures:normal;writing-mode:lr-tb;text-anchor:start;line-height:1.25"
         d="M-62.8730263333 145.642746078C-62.8730263333 145.642746078 -67.0724933333 129.025496078 -67.0724933333 129.025496078C-67.0724933333 129.025496078 -72.5588933333 143.430116078 -72.5588933333 143.430116078C-72.5588933333 143.430116078 -78.0452933333 129.048076078 -78.0452933333 129.048076078C-78.0452933333 129.048076078 -82.2447593333 145.642746078 -82.2447593333 145.642746078C-82.2447593333 145.642746078 -81.3190723333 145.642746078 -81.3190723333 145.642746078C-81.3190723333 145.642746078 -77.8646723333 132.073496078 -77.8646723333 132.073496078C-77.8646723333 132.073496078 -72.5588933333 146.049146078 -72.5588933333 146.049146078C-72.5588933333 146.049146078 -67.2531163333 132.096076078 -67.2531163333 132.096076078C-67.2531163333 132.096076078 -63.8212933333 145.642746078 -63.8212933333 145.642746078C-63.8212933333 145.642746078 -62.8730263333 145.642746078 -62.8730263333 145.642746078" />
      <path
         id="path1940"
         style="font-size:85.33333588px;fill-opacity:1.0;font-variant-numeric:normal;letter-spacing:0px;word-spacing:0px;stroke:none;stroke-width:0.26458332;font-style:normal;fill:#235b69;font-stretch:normal;font-feature-settings:normal;font-weight:500;opacity:1.0;-inkscape-font-specification:'GeosansLight, Medium';font-variant:normal;font-variant-caps:normal;font-family:GeosansLight;text-align:start;font-variant-ligatures:normal;writing-mode:lr-tb;text-anchor:start;line-height:1.25"
         d="M-62.8242286667 145.623486863C-62.8242286667 145.623486863 -67.0236956667 129.006236863 -67.0236956667 129.006236863C-67.0236956667 129.006236863 -72.5100956667 143.410856863 -72.5100956667 143.410856863C-72.5100956667 143.410856863 -77.9964956667 129.028816863 -77.9964956667 129.028816863C-77.9964956667 129.028816863 -82.1959616667 145.623486863 -82.1959616667 145.623486863C-82.1959616667 145.623486863 -81.2702746667 145.623486863 -81.2702746667 145.623486863C-81.2702746667 145.623486863 -77.8158746667 132.054236863 -77.8158746667 132.054236863C-77.8158746667 132.054236863 -72.5100956667 146.029886863 -72.5100956667 146.029886863C-72.5100956667 146.029886863 -67.2043186667 132.076816863 -67.2043186667 132.076816863C-67.2043186667 132.076816863 -63.7724956667 145.623486863 -63.7724956667 145.623486863C-63.7724956667 145.623486863 -62.8242286667 145.623486863 -62.8242286667 145.623486863" />
      <path
         id="path1942"
         style="font-size:85.33333588px;fill-opacity:1.0;font-variant-numeric:normal;letter-spacing:0px;word-spacing:0px;stroke:none;stroke-width:0.26458332;font-style:normal;fill:#1e586c;font-stretch:normal;font-feature-settings:normal;font-weight:500;opacity:1.0;-inkscape-font-specification:'GeosansLight, Medium';font-variant:normal;font-variant-caps:normal;font-family:GeosansLight;text-align:start;font-variant-ligatures:normal;writing-mode:lr-tb;text-anchor:start;line-height:1.25"
         d="M-62.775431 145.604227647C-62.775431 145.604227647 -66.974898 128.986977647 -66.974898 128.986977647C-66.974898 128.986977647 -72.461298 143.391597647 -72.461298 143.391597647C-72.461298 143.391597647 -77.947698 129.009557647 -77.947698 129.009557647C-77.947698 129.009557647 -82.147164 145.604227647 -82.147164 145.604227647C-82.147164 145.604227647 -81.221477 145.604227647 -81.221477 145.604227647C-81.221477 145.604227647 -77.767077 132.034977647 -77.767077 132.034977647C-77.767077 132.034977647 -72.461298 146.010627647 -72.461298 146.010627647C-72.461298 146.010627647 -67.155521 132.057557647 -67.155521 132.057557647C-67.155521 132.057557647 -63.723698 145.604227647 -63.723698 145.604227647C-63.723698 145.604227647 -62.775431 145.604227647 -62.775431 145.604227647" />
      <path
         id="path1944"
         style="font-size:85.33333588px;fill-opacity:1.0;font-variant-numeric:normal;letter-spacing:0px;word-spacing:0px;stroke:none;stroke-width:0.26458332;font-style:normal;fill:#1a566e;font-stretch:normal;font-feature-settings:normal;font-weight:500;opacity:1.0;-inkscape-font-specification:'GeosansLight, Medium';font-variant:normal;font-variant-caps:normal;font-family:GeosansLight;text-align:start;font-variant-ligatures:normal;writing-mode:lr-tb;text-anchor:start;line-height:1.25"
         d="M-62.7266333333 145.584968431C-62.7266333333 145.584968431 -66.9261003333 128.967718431 -66.9261003333 128.967718431C-66.9261003333 128.967718431 -72.4125003333 143.372338431 -72.4125003333 143.372338431C-72.4125003333 143.372338431 -77.8989003333 128.990298431 -77.8989003333 128.990298431C-77.8989003333 128.990298431 -82.0983663333 145.584968431 -82.0983663333 145.584968431C-82.0983663333 145.584968431 -81.1726793333 145.584968431 -81.1726793333 145.584968431C-81.1726793333 145.584968431 -77.7182793333 132.015718431 -77.7182793333 132.015718431C-77.7182793333 132.015718431 -72.4125003333 145.991368431 -72.4125003333 145.991368431C-72.4125003333 145.991368431 -67.1067233333 132.038298431 -67.1067233333 132.038298431C-67.1067233333 132.038298431 -63.6749003333 145.584968431 -63.6749003333 145.584968431C-63.6749003333 145.584968431 -62.7266333333 145.584968431 -62.7266333333 145.584968431" />
      <path
         id="path1946"
         style="font-size:85.33333588px;fill-opacity:1.0;font-variant-numeric:normal;letter-spacing:0px;word-spacing:0px;stroke:none;stroke-width:0.26458332;font-style:normal;fill:#155370;font-stretch:normal;font-feature-settings:normal;font-weight:500;opacity:1.0;-inkscape-font-specification:'GeosansLight, Medium';font-variant:normal;font-variant-caps:normal;font-family:GeosansLight;text-align:start;font-variant-ligatures:normal;writing-mode:lr-tb;text-anchor:start;line-height:1.25"
         d="M-62.6778356667 145.565709216C-62.6778356667 145.565709216 -66.8773026667 128.948459216 -66.8773026667 128.948459216C-66.8773026667 128.948459216 -72.3637026667 143.353079216 -72.3637026667 143.353079216C-72.3637026667 143.353079216 -77.8501026667 128.971039216 -77.8501026667 128.971039216C-77.8501026667 128.971039216 -82.0495686667 145.565709216 -82.0495686667 145.565709216C-82.0495686667 145.565709216 -81.1238816667 145.565709216 -81.1238816667 145.565709216C-81.1238816667 145.565709216 -77.6694816667 131.996459216 -77.6694816667 131.996459216C-77.6694816667 131.996459216 -72.3637026667 145.972109216 -72.3637026667 145.972109216C-72.3637026667 145.972109216 -67.0579256667 132.019039216 -67.0579256667 132.019039216C-67.0579256667 132.019039216 -63.6261026667 145.565709216 -63.6261026667 145.565709216C-63.6261026667 145.565709216 -62.6778356667 145.565709216 -62.6778356667 145.565709216" />
      <path
         id="path1948"
         style="font-size:85.33333588px;fill-opacity:1.0;font-variant-numeric:normal;letter-spacing:0px;word-spacing:0px;stroke:none;stroke-width:0.26458332;font-style:normal;fill:#115173;font-stretch:normal;font-feature-settings:normal;font-weight:500;opacity:1.0;-inkscape-font-specification:'GeosansLight, Medium';font-variant:normal;font-variant-caps:normal;font-family:GeosansLight;text-align:start;font-variant-ligatures:normal;writing-mode:lr-tb;text-anchor:start;line-height:1.25"
         d="M-62.629038 145.54645C-62.629038 145.54645 -66.828505 128.9292 -66.828505 128.9292C-66.828505 128.9292 -72.314905 143.33382 -72.314905 143.33382C-72.314905 143.33382 -77.801305 128.95178 -77.801305 128.95178C-77.801305 128.95178 -82.000771 145.54645 -82.000771 145.54645C-82.000771 145.54645 -81.075084 145.54645 -81.075084 145.54645C-81.075084 145.54645 -77.620684 131.9772 -77.620684 131.9772C-77.620684 131.9772 -72.314905 145.95285 -72.314905 145.95285C-72.314905 145.95285 -67.009128 131.99978 -67.009128 131.99978C-67.009128 131.99978 -63.577305 145.54645 -63.577305 145.54645C-63.577305 145.54645 -62.629038 145.54645 -62.629038 145.54645" />
    </g>
  </g>
</svg>
