<svg xmlns="http://www.w3.org/2000/svg" width="558.727" height="524.043">
<path d="M85.01 513.32c3.652-9.305 16.943-43.929 33.648-87.655 5.518-14.445 25.811-66.72 45.096-116.168 19.285-49.447 38.645-99.45 43.024-111.117C221.276 159.75 282.928 1.912 283.52 1.91c.56-.003 31.577 79.104 50.299 128.286 4.97 13.056 25.489 65.786 45.597 117.178 20.109 51.391 40.335 103.44 44.947 115.662 8.846 23.443 28.501 74.132 48.892 126.089 6.72 17.124 12.219 31.57 12.219 32.1 0 .583-5.518.855-13.867.686l-13.867-.28-13.23-34.346c-22.129-57.443-35.45-92.335-40.011-104.79l-4.34-11.854-30.48-.267-30.481-.267 5.088-13.89 5.089-13.889h19.057c12.16 0 19.057-.37 19.057-1.02 0-.934-10.308-27.628-56.483-146.269-8.933-22.95-20.544-53.179-25.804-67.175-19.663-52.327-21.583-56.747-23.025-53.016-.277.718-11.206 28.806-24.286 62.42-13.08 33.612-27.863 72.023-32.85 85.357-4.988 13.334-17.298 45.323-27.356 71.087-10.058 25.765-18.287 47.243-18.287 47.73 0 .487 6.948.886 15.44.886h15.44l5.106 13.89 5.105 13.89-26.445.268-26.445.269-17.8 45.693c-9.791 25.131-21.394 55.24-25.784 66.906-4.39 11.668-9.51 25.191-11.375 30.052l-3.391 8.84h-27.7ZM530.515 498.143c-.304-.972-10.347-40.86-22.32-88.64-25.018-99.855-75.361-297.792-75.898-298.417-.773-.9-1.833 1.637-12.901 30.862-24.715 65.261-32.436 85.192-33.008 85.207-.77.02-13.041-31.79-13.041-33.805 0-.839 4.824-14.142 10.721-29.562 5.897-15.42 13.656-35.992 17.242-45.715 15.078-40.881 35.052-91.934 35.68-91.2.371.436 2.817 9.428 5.435 19.985 2.617 10.556 16.857 66.695 31.644 124.753 14.787 58.059 39.455 155.677 54.817 216.93l27.932 111.37h-12.876c-11.378 0-12.94-.206-13.427-1.768z" fill="none" stroke="#000" stroke-width="3.818" stroke-linejoin="round"/><path d="M266.524 475.92a94752.95 94752.95 0 0 0-29.07-76.014c-25.398-66.326-32.803-86.023-32.802-87.262 0-1.462 12.06-33.224 12.978-34.179.384-.4 4.047 8.237 8.139 19.193 6.788 18.177 30.312 80.154 46.081 121.41 3.498 9.15 6.8 16.784 7.337 16.963.537.18 1.302-.489 1.7-1.485.397-.996 9.715-25.675 20.706-54.843 34.285-90.984 42.722-112.417 43.62-110.813.453.81 3.555 8.594 6.89 17.296l6.067 15.82-7.179 18.898c-3.948 10.394-14.786 39.126-24.084 63.85-25.15 66.874-46.902 123.238-47.56 123.238-.319 0-6.089-14.432-12.823-32.072zM2.115 497.638c4.826-20.213 21.617-86.622 47.442-187.636 17.542-68.614 40.819-160.55 51.727-204.303 10.907-43.752 20.104-79.542 20.436-79.533.332.009 5.802 13.987 12.156 31.062 6.354 17.075 21.62 57.266 33.924 89.314l22.371 58.267-6.56 16.775c-3.608 9.227-6.884 16.417-7.28 15.979-.397-.438-6.516-16.025-13.598-34.637-24.073-63.264-34.98-91.417-35.701-92.152-.396-.403-6.507 21.87-13.58 49.498a324433.35 324433.35 0 0 1-38.146 148.72c-13.907 54.17-30.062 117.582-35.901 140.916-5.84 23.335-11.067 44.131-11.618 46.215l-1 3.788H14.179c-12.561 0-12.605-.008-12.064-2.273z" fill="none" stroke="#000" stroke-width="3.818" stroke-linejoin="round"/>
</svg>