<?xml version="1.0" encoding="UTF-8" standalone="no"?>
<!-- Created with Inkscape (http://www.inkscape.org/) -->

<svg
   xmlns:dc="http://purl.org/dc/elements/1.1/"
   xmlns:cc="http://creativecommons.org/ns#"
   xmlns:rdf="http://www.w3.org/1999/02/22-rdf-syntax-ns#"
   xmlns:svg="http://www.w3.org/2000/svg"
   xmlns="http://www.w3.org/2000/svg"
   xmlns:sodipodi="http://sodipodi.sourceforge.net/DTD/sodipodi-0.dtd"
   xmlns:inkscape="http://www.inkscape.org/namespaces/inkscape"
   version="1.1"
   id="svg4830"
   width="2560"
   height="965"
   viewBox="0 0 2560 965"
   sodipodi:docname="ruby-on-rails.svg"
   inkscape:version="0.92.5 (2060ec1f9f, 2020-04-08)">
  <metadata
     id="metadata4836">
    <rdf:RDF>
      <cc:Work
         rdf:about="">
        <dc:format>image/svg+xml</dc:format>
        <dc:type
           rdf:resource="http://purl.org/dc/dcmitype/StillImage" />
        <dc:title />
      </cc:Work>
    </rdf:RDF>
  </metadata>
  <defs
     id="defs4834" />
  <sodipodi:namedview
     pagecolor="#ffffff"
     bordercolor="#666666"
     borderopacity="1"
     objecttolerance="10"
     gridtolerance="10"
     guidetolerance="10"
     inkscape:pageopacity="0"
     inkscape:pageshadow="2"
     inkscape:window-width="5076"
     inkscape:window-height="1376"
     id="namedview4832"
     showgrid="false"
     showborder="false"
     inkscape:zoom="1.1834197"
     inkscape:cx="841.94141"
     inkscape:cy="177.76392"
     inkscape:window-x="44"
     inkscape:window-y="27"
     inkscape:window-maximized="1"
     inkscape:current-layer="svg4830" />
  <g
     id="g4840"
     transform="matrix(0.24331911,0,0,0.46120754,747.77018,518.85571)"
     inkscape:export-xdpi="96"
     inkscape:export-ydpi="96">
    <path
       style="fill:#e99a9a"
       d="m 93,918.49342 c 0,-5.54805 7.2504,-44.91658 12.61426,-68.49342 32.12709,-141.2146 103.13732,-296.08909 188.06866,-410.18081 31.37448,-42.14661 56.57834,-71.21071 95.25915,-109.84908 27.13312,-27.10334 49.17664,-46.95017 76.05793,-68.47855 97.43016,-78.02875 199.14742,-127.49561 291,-141.5183 44.9916,-6.86865 109.49716,-6.8592 160.5395,0.0235 154.3315,20.81062 321.34,99.15641 476.4605,223.51366 31.2126,25.02256 70.7815,60.14554 69.3154,61.52713 -5.3478,5.03941 -21.8899,16.74374 -22.7385,16.08861 -5.4752,-4.22695 -32.3872,-23.02811 -45.5879,-31.84852 -98.4738,-65.7975 -197.1439,-108.22335 -286.489,-123.1835 -54.1425,-9.06576 -108.11292,-9.42232 -157.97834,-1.04372 -60.23792,10.12143 -131.68734,39.10627 -182.02166,73.84059 -108.44427,74.8344 -173.25159,194.61983 -190.50094,352.10896 -3.39434,30.99078 -4.29027,53.83985 -3.71765,94.8117 0.519,37.13533 1.67861,56.16009 5.25343,86.1883 1.47701,12.40677 6.09295,41.89409 7.08343,45.25 0.49093,1.66333 -11.6947,1.75 -246.05088,1.75 -135.61207,0 -246.56739,-0.22796 -246.56739,-0.50658 z m 751,-221.49342 v -222 l 120.75,0.0216 c 115.2923,0.0207 121.1419,0.10831 129.4208,1.93914 33.2078,7.34367 65.7402,25.91795 84.9944,48.52726 23.9253,28.09432 34.7626,60.53324 34.8153,104.21074 0.081,67.36676 -26.3815,116.40562 -75.1474,139.25808 -7.2763,3.40979 -13.4551,5.43861 -29.5303,9.69632 l -3.1973,0.84682 69.0434,69.75 69.0434,69.75 -88.8461,-0.0229 -88.8462,-0.0229 -51,-52.92639 -51,-52.92639 -0.25876,52.94932 -0.25877,52.94932 h -59.99123 -59.99124 v -222 z m 219.0542,-11.82158 c 17.7655,-11.27513 26.4284,-36.64368 21.459,-62.84045 -2.6355,-13.89306 -11.0462,-27.42469 -20.7069,-33.3147 -3.1941,-1.94738 -4.9439,-2.01592 -51.5563,-2.01953 l -48.25,-0.004 v 50.5 50.5 h 47.3042 47.3042 l 4.4458,-2.82158 z m 208.9458,66.22866 c 0,-164.08742 0.042,-167.79979 2.0156,-177.48367 6.0204,-29.54253 22.8483,-57.28186 44.8911,-73.99921 8.7984,-6.6727 26.7107,-15.43418 36.5933,-17.89892 14.9317,-3.72401 20.9096,-3.98535 91.619,-4.00547 76.1574,-0.0217 77.8454,0.0823 96.881,5.96757 30.5805,9.45461 55.0963,28.88575 68.4705,54.26938 2.3888,4.53378 5.504,11.84324 6.9227,16.24324 5.8171,18.04104 5.6068,10.72298 5.6068,195.13099 v 169.36901 h -59 -59 v -39 -39 h -56.5 -56.5 v 39 39 h -61 -61 z m 233.978,-92.15708 c -0.021,-52.17719 -0.1409,-56.00635 -1.8779,-59.75 -2.4155,-5.20612 -7.3682,-9.83058 -13.6001,-12.69878 -4.82,-2.21837 -6.1161,-2.31288 -36,-2.62494 -33.1836,-0.34652 -39.4406,0.22391 -47.4667,4.32738 -2.4933,1.27476 -5.973,3.82044 -7.7326,5.65705 -6.4526,6.73486 -6.3007,5.14862 -6.3007,65.80717 v 55.03212 h 56.5 56.5 z m 174.022,39.25 v -220.5 h 63.5 63.5 v 220.5 220.5 h -63.5 -63.5 z m 178,0 v -220.5 h 63.5 63.5 v 163.5 163.5 h 85 85 v 57 57 h -148.5 -148.5 z m 338,164 v -56.5 h 66.8365 c 36.76,0 83.11,-0.29796 103,-0.66214 l 36.1635,-0.66213 v -26.83787 -26.83786 h -52.369 c -57.405,0 -61.907,-0.34354 -78.8381,-6.01599 -39.2561,-13.15199 -67.1532,-42.22146 -77.5552,-80.81447 -2.524,-9.36475 -2.6186,-10.76034 -3.0001,-44.27532 -0.3205,-28.16071 -0.1036,-36.28754 1.1645,-43.63569 4.1741,-24.18748 13.4432,-42.8113 29.7729,-59.82069 18.4745,-19.24354 39.998,-31.17464 65.6798,-36.40825 9.6217,-1.96078 13.4037,-2.02959 111.5523,-2.02959 h 101.5929 v 57 57 h -100.5 -100.5 v 25.40448 25.40448 l 57.25,0.46159 c 52.8738,0.42631 57.938,0.61646 66.25,2.48753 49.7812,11.2059 84.8425,47.3829 92.0105,94.93844 2.1116,14.0089 2.0645,64.67434 -0.073,79.07284 -3.7727,25.40796 -14.0742,46.6056 -30.9117,63.6078 -12.9174,13.0438 -29.8563,23.42154 -48.3337,29.61204 -18.2089,6.10056 -16.2255,6.0108 -132.8226,6.0108 h -106.369 v -56.5 z m -1536.5,27.78014 c -14.3,-5.10977 -30.99713,-11.11325 -37.10474,-13.34108 l -11.10474,-4.05061 -1.64513,-12.19422 c -3.30518,-24.49923 -6.29237,-59.51286 -5.49297,-64.38474 0.32819,-2.00018 2.21576,-1.44045 33.84449,10.03609 l 33.49691,12.15442 0.7261,4.5 c 4.44663,27.55759 7.40324,44.05412 10.35868,57.79657 1.94077,9.02436 3.39203,16.9403 3.22503,17.59098 -0.19741,0.7692 -9.39897,-2.06694 -26.30363,-8.10741 z m -573.5,-209.33772 c -18.975,-7.05488 -34.945447,-13.00149 -35.489881,-13.21469 -1.799765,-0.70481 28.947947,-74.72773 31.040476,-74.72773 1.106038,0 68.914235,24.55121 70.478755,25.51814 0.42696,0.26387 -3.49255,10.49274 -8.71003,22.73082 -5.21747,12.23807 -12.22826,29.11354 -15.57953,37.50104 -3.35128,8.3875 -6.3512,15.19813 -6.66651,15.13473 -0.3153,-0.0634 -16.09828,-5.88744 -35.07328,-12.94231 z m 554.94257,-22.70056 c -12.36788,-9.75802 -23.70535,-18.69939 -25.19438,-19.86971 l -2.70734,-2.12785 5.44297,-21.87215 c 5.4858,-22.04426 12.01636,-44.1535 13.50415,-45.71842 0.85674,-0.90115 45.01203,33.68529 45.01203,35.25751 0,0.51076 -1.11085,5.57718 -2.46855,11.25871 -3.29246,13.77782 -7.1062,34.91615 -8.62941,47.83005 -0.68117,5.775 -1.51613,11.05884 -1.85546,11.74186 -0.40357,0.81231 -8.39502,-4.89488 -23.10401,-16.5 z m 77.67439,-199.73829 c -14.24397,-21.48459 -14.81872,-22.54632 -13.38507,-24.72605 0.82389,-1.25264 6.47946,-7.94831 12.56794,-14.87927 12.29301,-13.99404 24.17121,-25.36569 25.2516,-24.17473 0.38742,0.42706 6.82939,9.99234 14.31549,21.25617 l 13.61109,20.47969 -4.83957,5.02031 c -8.09753,8.39993 -20.04095,22.56104 -26.37326,31.27031 -3.29912,4.5375 -6.05842,8.23922 -6.13179,8.22604 -0.0734,-0.0132 -6.83076,-10.12579 -15.01643,-22.47247 z m -443.15582,-88.05919 c -12.62863,-10.77455 -23.53251,-20.14474 -24.23085,-20.82265 -1.01712,-0.98737 2.8269,-5.44567 19.3234,-22.41132 11.3262,-11.64831 21.90331,-22.1117 23.50469,-23.25198 l 2.9116,-2.07324 20.26501,17.71042 c 11.14575,9.74073 21.03585,18.42906 21.97798,19.3074 1.59928,1.49099 1.10971,2.26074 -7.37576,11.59699 -8.53732,9.3933 -25.21082,28.97839 -30.87607,36.26775 l -2.53885,3.2667 z m 597.23271,-9.19438 c -1.89109,-3.34361 -13.72524,-41.60069 -13.0562,-42.20767 1.50139,-1.36214 28.39662,-11.66963 40.36235,-15.46871 6.325,-2.00817 12.03232,-3.83306 12.68294,-4.0553 0.7567,-0.25848 3.68636,7.09713 8.13065,20.41391 l 6.94771,20.818 -8.13065,2.7285 c -9.73367,3.26645 -33.22941,12.77752 -39.83867,16.12668 -5.00003,2.53371 -6.41044,2.86049 -7.09813,1.64459 z m 235.09825,-31.77313 c -8.7712,-1.74587 -28.7724,-4.2051 -41.0421,-5.04627 l -9.75,-0.66844 v -3.11149 c 0,-3.25334 2.1586,-36.01664 2.3937,-36.33171 0.6873,-0.92121 36.217,3.33231 52.999,6.3449 l 8.8927,1.59636 -0.6667,13.11989 c -0.3666,7.21594 -0.943,15.93239 -1.2808,19.36989 -0.7026,7.15056 -0.2664,6.972 -11.5458,4.72687 z m -586.61894,-156.72687 c -3.77936,-5.6375 -10.2664,-15.48248 -14.41564,-21.87773 l -7.54407,-11.62772 15.14328,-8.51656 c 21.03914,-11.83239 32.12687,-17.72799 33.34066,-17.72799 0.85969,0 28.30261,41.07897 28.30261,42.36583 0,0.22987 -5.5125,3.46511 -12.25,7.18942 -6.7375,3.72431 -17.35241,9.84796 -23.58869,13.60811 -6.23627,3.76015 -11.51371,6.83664 -11.72763,6.83664 -0.21392,0 -3.48116,-4.6125 -7.26052,-10.25 z m 586.32684,-24.3576 c -6.05,-2.4359 -19.325,-7.39613 -29.5,-11.02273 -10.175,-3.6266 -18.8401,-6.90602 -19.2559,-7.2876 -0.4157,-0.38158 -0.2161,-9.79777 0.4437,-20.92486 l 1.1994,-20.231072 3.0564,0.629474 c 6.3822,1.314442 41.748,13.496508 49.5949,17.083418 l 8.1998,3.74821 -0.7149,15.55638 c -0.3932,8.55601 -1.0094,18.10367 -1.3692,21.21703 l -0.6542,5.66065 z m -338.79559,-73.444295 c -3.18757,-10.004647 -5.55803,-18.427819 -5.26769,-18.718158 1.11878,-1.118776 26.83386,-3.192478 42.8427,-3.454897 l 16.77941,-0.27505 5.96345,18 c 3.2799,9.9 5.96666,18.496231 5.97058,19.102735 0.005,0.759014 -8.01912,1.299962 -25.74286,1.73548 -14.1625,0.348009 -27.775,0.895412 -30.25,1.216451 l -4.5,0.583707 z"
       id="path4846"
       inkscape:connector-curvature="0" />
    <path
       style="fill:#de5f5f"
       d="m 93.583694,914.75 c 20.001416,-139.96706 87.612986,-309.26969 175.807506,-440.23046 88.00997,-130.68675 213.37257,-243.63387 339.1088,-305.52466 60.39975,-29.7304 111.58418,-45.36205 169.25828,-51.69124 20.1488,-2.21114 90.85565,-2.52643 110.24172,-0.49158 60.9811,6.40085 109.01043,16.7467 165.5,35.64983 115.3956,38.61487 236.7116,107.50264 345.9878,196.46473 25.8122,21.01387 62.5668,53.7184 62.4467,55.56562 -0.036,0.55427 -4.8315,4.6555 -10.6565,9.11385 l -10.5909,8.10609 -15.5936,-11.18997 c -112.1576,-80.48465 -221.6126,-129.48718 -326.0935,-145.99067 -30.8547,-4.87371 -80.204,-6.97158 -108.5,-4.61239 -60.85076,5.07343 -109.88167,18.98682 -171.19223,48.57885 -47.4661,22.90989 -91.05549,56.14484 -126.56744,96.502 -25.5829,29.0734 -44.77599,57.97626 -62.75318,94.5 -25.28288,51.36648 -41.07894,104.52947 -50.44339,169.77158 -10.30463,71.79227 -8.76207,165.84023 3.88655,236.95747 l 2.27139,12.77095 h -246.36267 -246.362665 z m 750.416306,-217.77292 v -222.02292 l 122.75,0.2951 122.75,0.29511 11,3.13267 c 59.7222,17.0082 97.3616,55.03133 109.3778,110.49311 7.4222,34.2574 4.1382,80.33422 -7.9038,110.89809 -8.8223,22.39197 -23.8044,42.30765 -42.474,56.4606 -11.783,8.93241 -41.0129,21.47116 -50.0528,21.47116 -1.2811,0 -2.6072,0.44979 -2.9469,0.99954 -0.3398,0.54974 28.7712,30.59601 64.691,66.76949 35.9198,36.17348 66.8595,67.44869 68.7549,69.50047 l 3.4461,3.7305 h -88.1378 -88.1377 l -51.3084,-53.11096 -51.3084,-53.11095 -0.25876,53.11095 -0.25877,53.11096 h -59.99123 -59.99124 z m 221.2428,-12.96453 c 13.3126,-9.53292 20.7729,-26.58922 20.7424,-47.42251 -0.026,-17.91064 -4.9954,-31.78968 -14.9054,-41.63124 -9.518,-9.45213 -6.215,-8.9588 -59.9809,-8.9588 h -47.0989 v 51 51 h 47.8372 47.8372 z m 206.7572,68.61844 c 0,-182.62656 -0.2664,-174.0864 6.0155,-192.83675 12.8931,-38.4832 40.2332,-66.61423 74.4845,-76.63935 15.6385,-4.57729 17.2139,-4.65489 94.5,-4.65489 67.2269,0 74.2255,0.15497 82,1.81578 44.9971,9.61234 77.1117,35.78905 89.7853,73.18422 6.0077,17.72665 5.6038,4.6085 5.9489,193.25 l 0.3151,172.25 h -59.0247 -59.0246 v -39 -39 h -57 -57 v 39 39 h -60.5 -60.5 z m 234.9944,-91.38099 c 0,-35.56311 -0.3728,-55.07254 -1.0908,-57.65867 -2.3877,-8.59971 -8.4706,-14.57442 -18.4865,-18.1577 -4.0278,-1.44098 -9.392,-1.84032 -29.6611,-2.2081 -29.8949,-0.54243 -41.3931,0.54461 -50.1953,4.74549 -6.7654,3.22882 -9.3316,5.60114 -12.4554,11.51417 -2.0676,3.91382 -2.1053,4.98391 -2.1053,59.75 v 55.76481 h 57 57 l -0.01,-53.75 z m 174.0056,37.25 v -220.5 h 63 63 v 220.5 220.5 h -63 -63 z m 178,0.003 v -220.5033 h 62.5 62.5 v 163.5 163.5 h 85.5083 85.5082 l -0.2582,56.75 -0.2583,56.75 -147.75,0.2533 -147.75,0.2533 z m 337,163.9967 v -56.5 h 103 103 v -27.43208 -27.43208 l -55.25,-0.40791 c -51.7301,-0.38194 -55.7964,-0.54035 -63.827,-2.48657 -49.7039,-12.04574 -84.3795,-48.14605 -91.4785,-95.2372 -1.9745,-13.0978 -1.9745,-61.91052 0,-75.00832 7.4185,-49.21007 45.0609,-87.47351 96.5555,-98.14838 5.2045,-1.0789 26.9288,-1.34746 109,-1.34746 h 102.5 l 0.2583,56.24522 0.2583,56.24521 -100.7583,0.25479 -100.7583,0.25478 v 26 26 l 60,0.54002 60,0.54002 9.6905,2.69128 c 26.6932,7.41329 49.7115,22.54915 64.8721,42.65704 5.8822,7.80169 13.8371,22.985 16.818,32.1002 4.4918,13.73486 5.257,20.34088 5.8181,50.22858 0.7152,38.09323 -0.7904,52.67487 -7.3309,70.99553 -11.9456,33.46111 -39.1113,58.7341 -75.483,70.22392 -17.2769,5.45777 -18.5547,5.51112 -132.1348,5.51751 l -104.75,0.006 v -56.5 z m -1547.85571,23.48877 c -19.44563,-7.0401 -35.71054,-13.18011 -36.14422,-13.64448 -0.94725,-1.01425 -4.55928,-29.90148 -5.91988,-47.34429 -2.06569,-26.48198 -2.16398,-30.00302 -0.83602,-29.94746 0.6907,0.0289 15.86625,5.35949 33.72343,11.84575 l 32.46761,11.79321 2.26389,15.40425 c 1.84022,12.52143 9.62304,53.30603 11.95616,62.65425 0.38135,1.52794 0.12562,2.21613 -0.79685,2.14447 -0.74713,-0.058 -17.26848,-5.8656 -36.71412,-12.9057 z m -563.14429,-205.69515 c -18.975,-6.93254 -34.641361,-12.71351 -34.814136,-12.84659 -0.794498,-0.61198 28.891523,-71.91425 30.694372,-73.72421 0.880127,-0.8836 71.089734,24.35519 71.107934,25.56172 0.007,0.43149 -4.42866,11.23149 -9.85593,24 -5.42727,12.7685 -12.26827,29.17796 -15.20222,36.46546 -2.93396,7.2875 -5.80597,13.22711 -6.38224,13.19912 -0.57628,-0.028 -16.57278,-5.72296 -35.54778,-12.6555 z m 554,-23.89937 c -13.475,-10.6551 -24.64365,-20.04314 -24.81922,-20.8623 -0.46535,-2.17111 9.05056,-39.89626 13.83666,-54.85452 2.99788,-9.3694 4.42321,-12.57531 5.29266,-11.90446 0.65445,0.50496 10.75068,8.45364 22.43607,17.66373 17.97322,14.16598 21.16918,17.0782 20.74637,18.90446 -4.36208,18.84157 -5.65624,24.91645 -7.38353,34.65884 -1.1214,6.325 -2.76925,16.9 -3.66189,23.5 -0.89265,6.6 -1.69592,12.06011 -1.78506,12.13358 -0.0891,0.0735 -11.18706,-8.58423 -24.66206,-19.23933 z m 79.60785,-198.46896 -14.7124,-22.07471 5.77677,-7.17529 c 3.17723,-3.94641 11.82454,-13.36903 19.21625,-20.93915 l 13.43948,-13.76386 14.01014,21.04217 14.01014,21.04217 -1.92412,2.38447 c -1.05826,1.31146 -6.12619,7.03622 -11.26207,12.72169 -5.13587,5.68547 -12.33587,14.47342 -16,19.52878 -3.66412,5.05535 -6.92749,9.21785 -7.25192,9.25 -0.32443,0.0321 -7.21046,-9.87518 -15.30227,-22.01627 z m -444.29631,-88.67758 c -12.75366,-10.86124 -23.21616,-20.20138 -23.25,-20.75586 -0.0339,-0.55449 10.18122,-11.24365 22.70014,-23.7537 l 22.76168,-22.74555 21.65954,18.7537 c 11.91274,10.31454 21.69499,19.12026 21.73832,19.56828 0.0433,0.44802 -4.08921,5.39802 -9.18343,11 -8.74679,9.61863 -19.54294,22.28669 -28.06868,32.93542 -2.09165,2.6125 -4.11038,4.74897 -4.48606,4.74771 -0.37568,-10e-4 -11.11786,-8.88875 -23.87151,-19.75 z m 592.12439,-27.49771 c -3.70168,-11.1375 -6.91136,-20.74505 -7.1326,-21.35012 -0.62875,-1.71947 48.44886,-20.39988 53.59505,-20.39988 0.92125,0 14.64435,39.79759 13.95563,40.47193 -0.1947,0.19063 -3.27901,1.32741 -6.85401,2.52616 -8.48196,2.84413 -28.43054,10.87036 -38.3054,15.41203 -4.29297,1.97443 -7.96806,3.58988 -8.16687,3.58988 -0.19881,0 -3.39012,-9.1125 -7.0918,-20.25 z m 236.06407,-13.31172 c -14.1386,-2.47751 -32.001,-4.43828 -40.4322,-4.43828 h -5.3262 l 0.6158,-6.75 c 0.3388,-3.7125 0.9127,-12.4875 1.2754,-19.5 l 0.6594,-12.75 4.6039,0.01 c 9.1176,0.0191 55.0994,6.12882 56.9391,7.56569 0.1844,0.144 -0.2241,8.84846 -0.9078,19.34325 -1.0669,16.37685 -1.4688,19.06132 -2.8353,18.93956 -0.8756,-0.078 -7.4421,-1.16696 -14.5921,-2.41985 z m -588.39457,-166.88305 c -7.75798,-11.78787 -14.10543,-21.65887 -14.10543,-21.93555 0,-1.10146 47.77045,-27.23086 48.42118,-26.48534 0.39047,0.44734 25.95397,39.90123 26.90566,41.52533 0.43728,0.74624 -3.33232,3.2859 -10.57365,7.12372 -6.18925,3.28022 -16.65319,9.22021 -23.25319,13.19997 -6.6,3.97976 -12.29005,7.40882 -12.64457,7.62014 -0.35451,0.21131 -6.99201,-9.26041 -14.75,-21.04827 z m 587.39457,-15.70163 c -8.25,-3.25665 -21.075,-8.00214 -28.5,-10.54553 -7.425,-2.5434 -13.7873,-4.8907 -14.1384,-5.21622 -0.4562,-0.42286 1.521,-39.293307 2.0735,-40.764796 0.3844,-1.023798 40.0579,12.318656 51.8224,17.428206 l 8.4977,3.69072 -0.6071,9.52701 c -0.3339,5.23986 -0.9054,14.58951 -1.2699,20.77701 -0.4288,7.27748 -1.054,11.21024 -1.7705,11.13739 -0.6092,-0.0619 -7.8577,-2.77714 -16.1077,-6.03379 z m -326.94845,-53.990146 c -0.26002,-0.7499 -2.9346,-9.013454 -5.94353,-18.363454 l -5.47077,-17 3.18137,-0.675639 c 3.84754,-0.817114 25.35964,-2.499276 43.2628,-3.382982 l 13.08142,-0.645704 5.73522,17.694025 c 3.15436,9.731713 5.94348,18.236774 6.19804,18.900136 0.34782,0.906417 -6.43984,1.505384 -27.31664,2.410515 -15.2787,0.662422 -28.78649,1.479388 -30.01731,1.81548 -1.43701,0.392396 -2.40703,0.123149 -2.7106,-0.752377 z"
       id="path4844"
       inkscape:connector-curvature="0" />
    <path
       style="fill:#cb0000"
       d="m 94.656631,909.25 c 8.416219,-60.88712 32.039059,-144.47491 62.103799,-219.75 28.84506,-72.22131 70.1496,-151.38953 109.9198,-210.68281 89.34835,-133.20919 212.27543,-244.79625 340.07766,-308.70551 78.84962,-39.42984 143.87864,-55.0919 228.74211,-55.0919 91.43981,0 184.865,20.66931 285.1661,63.08993 107.4671,45.45133 225.8319,121.72894 319.8339,206.11002 19.458,17.46652 22.4365,20.65703 20.3729,21.82287 -0.8949,0.50558 -5.714,4.07782 -10.7092,7.93832 -4.9951,3.86049 -9.3332,7.01908 -9.6401,7.01908 -0.3069,0 -8.5217,-5.70596 -18.2551,-12.67991 -144.8975,-103.81863 -290.095,-155.67307 -418.0689,-149.30514 -68.31157,3.39915 -124.86221,19.01419 -192.1996,53.07109 -61.04557,30.87472 -114.52426,78.68508 -153.70557,137.41396 -40.18578,60.23447 -66.71849,133.69964 -78.73296,218 -10.60256,74.39357 -9.51396,159.56123 2.99908,234.63603 1.3417,8.04981 2.43945,15.13731 2.43945,15.75 0,0.81561 -65.84655,1.11397 -245.84554,1.11397 h -245.845538 z m 749.343369,-212.25 v -222 h 118.59292 c 115.11808,0 118.88388,0.0593 128.52348,2.02371 26.5417,5.40886 50.6759,16.50785 70.5715,32.45485 40.9462,32.81978 58.3333,85.60798 49.7425,151.02144 -5.7843,44.04455 -25.2737,77.9651 -56.8778,98.99373 -13.1865,8.774 -32.024,16.43868 -44.4536,18.08753 -2.8045,0.37202 -5.099,0.96062 -5.099,1.30799 0,0.34737 8.1305,8.7269 18.0677,18.62117 9.9373,9.89427 41.0423,41.27708 69.1223,69.73958 l 51.0545,51.75 h -87.9276 -87.9276 l -51.3551,-53.25 c -28.24534,-29.2875 -51.73294,-53.4 -52.19468,-53.58333 -0.46174,-0.18334 -0.83952,23.77916 -0.83952,53.25 v 53.58333 h -59.5 -59.5 z m 220.068,-11.82814 c 9.3303,-5.91711 17.0984,-17.68702 20.5735,-31.17186 2.2366,-8.67895 2.1917,-26.28309 -0.089,-34.92004 -2.4256,-9.18588 -6.9604,-17.57373 -12.8912,-23.84472 -9.2467,-9.77698 -5.6907,-9.23524 -60.6214,-9.23524 h -48.0398 v 51 51 h 48.3042 48.3042 l 4.4596,-2.82814 z m 208.2116,64.57814 c 0.3532,-184.31666 -0.071,-170.40652 5.7682,-189.20767 9.7938,-31.53507 32.604,-58.6052 60.3315,-71.59874 21.7146,-10.17581 33.9129,-11.26287 119.8068,-10.67666 59.3774,0.40524 62.771,0.52726 72.0129,2.58929 54.776,12.2215 87.9916,47.16214 93.7738,98.64378 0.6403,5.70161 1.0138,69.56211 1.019,174.25 l 0.01,165.25 h -58.5 -58.5 v -39 -39 h -57.5 -57.5 v 39 39 h -60.5224 -60.5223 l 0.3243,-169.25 z m 234.7106,-89.5 -0.01,-55.75 -2.3474,-5.04087 c -3.7724,-8.10133 -11.2403,-13.29752 -22.2136,-15.45638 -4.1558,-0.8176 -15.1874,-1.0547 -35.4754,-0.76247 -27.3014,0.39326 -29.8902,0.58561 -35.574,2.64315 -7.2678,2.631 -13.5918,7.74727 -16.6546,13.47402 -2.1992,4.11201 -2.2176,4.54746 -2.5061,59.06561 -0.1598,30.20768 -0.061,55.52018 0.2186,56.25 0.4149,1.08112 11.0743,1.32694 57.5406,1.32694 h 57.0314 l -0.01,-55.75 z m 174.0098,38.25 v -220.5 h 63 63 v 220.5 220.5 h -63 -63 z m 178,0 v -220.5 h 62.5 62.5 v 163.5 163.5 h 85 85 v 57 57 h -147.5 -147.5 z m 338,164.69975 v -55.88414 l 18.1603,-0.6578 c 9.9882,-0.3618 56.3382,-0.65781 103,-0.65781 h 84.8397 v -27.40127 -27.40127 l -54.75,-0.46904 c -50.3786,-0.43159 -55.4686,-0.63108 -63.75,-2.49853 -48.2787,-10.88678 -82.5422,-44.4759 -92.0707,-90.25845 -2.0931,-10.05736 -3.1141,-58.39716 -1.5411,-72.97144 4.0191,-37.23898 21.1302,-65.68868 51.9154,-86.31702 11.8528,-7.94224 26.0045,-13.95936 42.1964,-17.94132 8.287,-2.03797 11.0745,-2.0999 111.25,-2.47162 l 102.75,-0.38128 v 56.55562 56.55562 h -100.5 -100.5 v 26.5 26.5 l 54.75,0.0198 c 30.8485,0.0112 57.8059,0.45428 61.75,1.01503 50.9115,7.23833 90.4916,44.28453 98.9447,92.6102 2.1798,12.46155 2.2249,72.25293 0.064,84.64491 -8.4074,48.21118 -41.7715,82.30027 -92.0087,94.00787 -8.7916,2.04885 -11.4953,2.1054 -116.75,2.44175 l -107.75,0.34432 v -55.88414 z m -1548.70597,22.54506 c -33.6751,-12.15397 -36.24388,-13.24837 -36.74828,-15.65611 -2.55849,-12.21287 -7.02213,-61.34584 -6.38097,-70.23766 l 0.33522,-4.64896 32,11.49359 c 17.6,6.32147 32.39135,11.86485 32.86966,12.31862 0.47832,0.45377 1.72046,6.59869 2.76032,13.65537 2.705,18.35662 9.94733,55.78071 12.49761,64.58034 0.27895,0.9625 0.13936,1.70775 -0.3102,1.65611 -0.44957,-0.0516 -17.11008,-5.97423 -37.02336,-13.1613 z m -561.457397,-205.14373 c -18.514852,-6.77634 -34.356432,-12.58657 -35.203512,-12.91162 -1.27071,-0.48762 -0.167274,-3.96724 6.307467,-19.89024 16.081065,-39.54732 22.822255,-54.32257 24.626793,-53.97667 2.471769,0.47381 67.804789,24.35772 68.659519,25.09998 0.39979,0.3472 -4.14097,12.09416 -10.09057,26.10437 -5.9496,14.0102 -12.80171,30.53274 -15.2269,36.71675 -2.42518,6.18401 -4.63443,11.22889 -4.90943,11.21085 -0.275,-0.018 -15.64852,-5.57708 -34.163367,-12.35342 z m 553.163367,-23.72767 c -12.375,-9.88467 -23.35655,-18.60315 -24.40343,-19.37439 -1.84796,-1.36139 -1.75068,-2.023 3.3378,-22.70064 2.88267,-11.71411 7.11422,-26.97737 9.40343,-33.91836 l 4.1622,-12.61998 22,17.47013 c 15.31684,12.16305 21.88958,17.97132 21.6365,19.11998 -5.70217,25.88123 -7.60118,35.8001 -9.84072,51.39985 -1.4805,10.3125 -2.9402,18.71525 -3.24379,18.67277 -0.3036,-0.0425 -10.67699,-8.16468 -23.05199,-18.04936 z m 78.83309,-199.03412 -14.66692,-22.10983 6.66692,-8.07273 c 7.3702,-8.92431 29.99111,-32.65673 31.12725,-32.65673 0.3962,0 6.89143,9.25956 14.43385,20.57679 l 13.71349,20.57679 -6.80384,7.53897 c -10.05072,11.13666 -19.89997,22.98538 -24.98524,30.05745 -2.47179,3.4375 -4.56716,6.23855 -4.65638,6.22456 -0.0892,-0.014 -6.76233,-9.97487 -14.82913,-22.13527 z m -444.56782,-89.03652 -23.23473,-20.0717 6.91646,-7.61553 c 3.80406,-4.18855 14.03469,-14.66314 22.73473,-23.27687 l 15.81827,-15.66134 20.5,17.9481 c 11.275,9.87145 21.12081,18.56843 21.87957,19.32662 1.17256,1.17167 0.34236,2.47911 -5.5328,8.71323 -7.98492,8.4728 -22.64636,25.51871 -29.74682,34.58472 -2.69224,3.4375 -5.1661,6.22175 -5.49747,6.18723 -0.33136,-0.0345 -11.05811,-9.09503 -23.83721,-20.13446 z m 592.09263,-28.19376 -7.06373,-21.24168 14.10292,-5.57655 c 13.73205,-5.42991 39.58408,-14.19667 40.08146,-13.59215 0.13638,0.16576 3.07572,8.85137 6.53189,19.30137 3.45616,10.45 6.46954,19.50698 6.69639,20.12662 0.22685,0.61964 -0.85188,1.42665 -2.39719,1.79336 -4.69255,1.11354 -24.2002,8.56226 -34.80964,13.29155 -5.5,2.45169 -11.36764,5.06097 -13.03919,5.79838 l -3.03919,1.34077 z m 241.258,-11.77617 c -13.0237,-2.34304 -34.6007,-4.82624 -42.1159,-4.84694 -3.3,-0.009 -6.4792,-0.34713 -7.0649,-0.75121 -1.1014,-0.75987 0.7119,-36.715 1.9122,-37.91528 1.3174,-1.31742 56.4049,5.67336 59.4278,7.54157 1.0338,0.63896 -0.6728,36.50599 -1.7779,37.36402 -0.2735,0.21232 -4.945,-0.41416 -10.3813,-1.39216 z m -593.44333,-167.66543 c -12.77266,-19.39451 -13.98416,-21.60851 -12.41331,-22.68512 1.74325,-1.19477 23.94096,-13.5105 38.47615,-21.34733 l 7.7354,-4.17064 11.59238,17.76784 c 6.37581,9.77231 12.60738,19.3293 13.84793,21.23774 l 2.25554,3.46991 -13.26866,7.24168 c -7.29776,3.98292 -17.94927,10.10735 -23.67002,13.60983 l -10.40135,6.36816 z m 589.32743,-14.93124 c -7.7,-3.04074 -20.75,-7.8963 -29,-10.79013 l -15,-5.26152 0.1886,-11.84226 c 0.3114,-19.553787 1.2469,-28.34226 3.017,-28.34226 2.7041,0 42.5344,13.67633 50.673,17.39934 l 7.8786,3.60409 -0.5874,4.74828 c -0.3231,2.61156 -0.8876,11.27329 -1.2545,19.24829 -0.3668,7.975 -0.9479,15.00958 -1.2911,15.6324 -0.4223,0.76603 -5.1536,-0.65628 -14.6242,-4.39623 z m -328.92927,-55.358594 c -0.25543,-0.757667 -2.89854,-8.855022 -5.87358,-17.994123 l -5.40917,-16.616547 11.10601,-1.190723 c 6.10831,-0.654898 19.48824,-1.454743 29.7332,-1.777434 l 18.62718,-0.586712 5.90482,18.393982 5.90481,18.393981 -19.532,0.611093 c -10.7426,0.3361 -24.13659,0.956009 -29.76443,1.377575 -8.30564,0.622153 -10.31988,0.507083 -10.69684,-0.611092 z"
       id="path4842"
       inkscape:connector-curvature="0" />
  </g>
</svg>
