<?xml version="1.0" encoding="UTF-8" standalone="no"?>
<!-- Created with Inkscape (http://www.inkscape.org/) -->

<svg
   xmlns:dc="http://purl.org/dc/elements/1.1/"
   xmlns:cc="http://creativecommons.org/ns#"
   xmlns:rdf="http://www.w3.org/1999/02/22-rdf-syntax-ns#"
   xmlns:svg="http://www.w3.org/2000/svg"
   xmlns="http://www.w3.org/2000/svg"
   xmlns:sodipodi="http://sodipodi.sourceforge.net/DTD/sodipodi-0.dtd"
   xmlns:inkscape="http://www.inkscape.org/namespaces/inkscape"
   version="1.1"
   id="svg4798"
   width="16"
   height="16"
   viewBox="0 0 16 16"
   sodipodi:docname="rubygem.svg"
   inkscape:version="0.92.5 (2060ec1f9f, 2020-04-08)"
   inkscape:export-filename="/home/mitchell/Coding/github/portfolio-v2/src/assets/images/rubygem.png"
   inkscape:export-xdpi="96"
   inkscape:export-ydpi="96">
  <metadata
     id="metadata4804">
    <rdf:RDF>
      <cc:Work
         rdf:about="">
        <dc:format>image/svg+xml</dc:format>
        <dc:type
           rdf:resource="http://purl.org/dc/dcmitype/StillImage" />
        <dc:title />
      </cc:Work>
    </rdf:RDF>
  </metadata>
  <defs
     id="defs4802" />
  <sodipodi:namedview
     pagecolor="#ffffff"
     bordercolor="#666666"
     borderopacity="1"
     objecttolerance="10"
     gridtolerance="10"
     guidetolerance="10"
     inkscape:pageopacity="0"
     inkscape:pageshadow="2"
     inkscape:window-width="5076"
     inkscape:window-height="1376"
     id="namedview4800"
     showgrid="false"
     inkscape:zoom="0.96940689"
     inkscape:cx="-180.49368"
     inkscape:cy="725.58216"
     inkscape:window-x="44"
     inkscape:window-y="27"
     inkscape:window-maximized="1"
     inkscape:current-layer="svg4798"
     showborder="false" />
  <g
     id="g4827"
     transform="matrix(0,-0.57359917,0.6004055,0,-63.568926,-479.79657)"
     inkscape:export-filename="/home/mitchell/g4827.png"
     inkscape:export-xdpi="96"
     inkscape:export-ydpi="96">
    <path
       style="fill:#f16460"
       d="m 686.06311,833.16703 c -33.13593,-7.78879 -71.66597,-16.76353 -143.5,-33.42523 -20.35,-4.72012 -52.3,-12.1399 -71,-16.4884 -18.7,-4.3485 -49.75,-11.55842 -69,-16.02206 -19.25,-4.46363 -47.375,-10.98954 -62.5,-14.50203 -15.125,-3.51249 -43.025,-9.98731 -62,-14.3885 -18.975,-4.40118 -50.96142,-11.83064 -71.08093,-16.5099 -20.11952,-4.67926 -46.89452,-10.81087 -59.5,-13.62581 -26.87243,-6.00089 -42.55626,-10.90074 -58.419066,-18.25094 -35.136676,-16.28096 -61.082514,-40.42035 -76.529998,-71.20169 -8.7748116,-17.48508 -9.8555009,-22.85061 -9.8692568,-49 -0.012372,-23.51892 1.2786398,-34.69647 6.9698175,-60.34453 8.4988173,-38.30107 31.1963303,-105.25369 58.4219473,-172.33177 4.551731,-11.21449 19.447567,-37.8237 21.173708,-37.8237 0.45858,0 0.822673,1.6875 0.809096,3.75 -0.03508,5.32838 4.270201,105.68877 4.549108,106.04431 0.201428,0.25678 43.372644,3.2611 180.427514,12.55607 l 34.45194,2.33651 115.54806,-55.43485 c 63.55143,-30.48917 130.32352,-62.54193 148.38242,-71.22835 l 32.83436,-15.7935 5.57158,-8.36509 c 3.06437,-4.60081 30.70141,-45.57861 61.41564,-91.06179 30.71423,-45.48318 55.84406,-83.171567 55.84406,-83.75197 0,-0.979779 -26.68557,-42.160468 -47.20723,-72.849348 -11.32285,-16.9326211 -11.1347,-16.4116002 -5.66158,-15.6782136 13.33117,1.7863486 19.05327,3.1618846 35.86881,8.6225026 26.2366,8.51998 26.5696,8.620488 67.5,20.373616 70.73771,20.312268 97.42551,30.641863 122.74584,47.509157 41.07104,27.359716 56.83973,55.543466 58.45109,104.470946 0.58867,17.87439 -0.17512,26.96558 -3.82262,45.5 -2.68589,13.64803 -10.23499,36.5063 -16.84311,51 -6.46326,14.17598 -9.62092,22.03459 -35.56008,88.5 -11.37624,29.15 -24.72308,63.35 -29.65963,76 -4.93656,12.65 -12.05319,30.875 -15.81473,40.5 -35.05457,89.69734 -51.91546,132.87726 -61.50058,157.5 -6.209,15.95 -25.10572,64.325 -41.99272,107.5 -16.88699,43.175 -31.15261,79.7375 -31.70137,81.25 -0.57278,1.57873 -1.70143,2.70505 -2.64992,2.64446 -0.90869,-0.058 -16.72717,-3.649 -35.15217,-7.9799 z m -490.5,-429.61799 c -8.49895,-0.78025 -26.75725,-4.4095 -34.69225,-6.89586 -58.80744,-18.42682 -75.915903,-65.76967 -45.8586,-126.90071 52.95008,-107.69071 231.3463,-223.423688 392.10121,-254.3722 40.82291,-7.8592208 84.93195,-9.2066375 114.94964,-3.511413 32.57337,6.180112 56.12533,20.012712 68.35644,40.147286 8.69377,14.311489 11.79357,34.46846 8.22391,53.477347 -18.65799,99.35604 -177.85849,225.89395 -350.08035,278.25561 -29.73242,9.03973 -69.52948,17.15356 -95.5,19.47055 -10.67076,0.952 -48.366,1.16794 -57.5,0.32939 z"
       id="path4833"
       inkscape:connector-curvature="0" />
    <path
       style="fill:#ea1521"
       d="m 709.93596,821.46193 c -6.39493,-10.2902 -36.72345,-58.75946 -67.39671,-107.70946 -30.67325,-48.95 -56.64799,-90.4625 -57.72162,-92.25 -1.07364,-1.7875 -2.36262,-3.25 -2.8644,-3.25 -0.50179,0 -8.62019,3.85897 -18.04089,8.57548 -54.34014,27.20562 -133.83957,55.279 -195.15345,68.91391 -4.29232,0.95453 -7.66153,1.8782 -7.48712,2.05261 0.30192,0.30192 62.9297,25.1721 225.79134,89.66423 115.54901,45.75664 130.54836,51.74025 129.76859,51.76787 -0.76026,0.0269 -38.76231,-8.69722 -102.26859,-23.47784 -20.35,-4.73631 -48.475,-11.25963 -62.5,-14.49626 -14.025,-3.23663 -42.15,-9.76377 -62.5,-14.50474 -20.35,-4.74097 -48.475,-11.2697 -62.5,-14.50828 -14.025,-3.23857 -74.1,-17.18479 -133.5,-30.9916 -59.4,-13.8068 -117,-27.12561 -128,-29.59736 -11,-2.47175 -24.95,-5.60927 -31,-6.97226 -12.49669,-2.81536 -14.11553,-3.52958 -12.86633,-5.67652 0.47648,-0.81891 42.87401,-62.86 94.21674,-137.86909 l 93.3504,-136.38015 20.6496,-9.84136 c 11.35727,-5.41274 78.24959,-37.4943 148.64959,-71.29235 l 128,-61.451 61.5,-91.12439 c 33.825,-50.11842 61.78124,-91.547381 62.12497,-92.064362 0.34373,-0.516981 17.21873,-4.516782 37.5,-8.888447 20.28127,-4.371665 51.27503,-11.055873 68.87503,-14.853796 l 32,-6.905314 11.15609,5.534814 c 31.99896,15.875476 58.81114,40.052425 69.30433,62.492745 3.32487,7.11043 8.23461,25.13739 10.18432,37.39346 1.78618,11.22808 1.53872,36.74379 -0.47911,49.40113 -3.6409,22.83841 -10.40716,44.46357 -21.93312,70.09887 -3.58566,7.975 -11.79013,28 -18.23216,44.5 -6.44202,16.5 -15.75189,40.35 -20.6886,53 -4.9367,12.65 -12.05199,30.875 -15.81175,40.5 -13.20187,33.79687 -25.95626,66.46996 -57.18825,146.5 -10.76631,27.58799 -15.85502,40.61593 -45.30959,116 -12.46418,31.9 -25.82026,66.1 -29.68018,76 -3.85991,9.9 -11.47392,29.36857 -16.92,43.2635 -5.44609,13.89492 -9.90198,25.70742 -9.90198,26.25 0,2.70312 -2.43623,-0.60108 -13.12715,-17.80404 z m -601.37285,-124.2814 c -29.024368,-10.21532 -53.727156,-25.69732 -72.007281,-45.12921 -7.488131,-7.95993 -19.423445,-24.78183 -24.022894,-33.85841 -5.9801426,-11.80124 -10.4073595,-31.59118 -10.451501,-46.71888 -0.045933,-15.74181 4.0622436,-43.7306 10.648155,-72.5453 l 2.702444,-11.82374 32.565541,-32.23082 c 36.28553,-35.91257 45.906679,-45.14118 46.428496,-44.5342 0.195047,0.22687 1.567094,14.5875 3.048993,31.9125 1.481898,17.325 4.458617,51.3 6.614917,75.5 8.6611,97.20247 16.02902,182.77651 15.75893,183.03065 -0.15719,0.14791 -5.2358,-1.47325 -11.2858,-3.60259 z m 93.71827,-293.9578 c -64.69616,-5.04987 -101.21827,-33.70922 -101.21827,-79.42724 0,-16.44071 4.53599,-32.86668 14.92383,-54.04302 13.00657,-26.51478 31.39922,-50.93147 59.52829,-79.02523 19.6331,-19.60846 35.78335,-33.5396 59.04788,-50.93443 88.70194,-66.322232 200.76105,-114.405808 297.00143,-127.440699 33.01608,-4.4717295 50.69592,-4.8249614 78.08123,-1.560013 48.01438,5.724402 79.18628,26.777235 87.4419,59.056383 3.59358,14.050764 2.32109,34.728939 -3.16242,51.389759 -28.03258,85.17288 -149.67111,186.4586 -291.86214,243.02717 -72.16371,28.70925 -146.1757,43.14155 -199.78173,38.95732 z"
       id="path4831"
       inkscape:connector-curvature="0" />
    <path
       style="fill:#950d15"
       d="m 717.83326,833.50247 c -1.90498,-3.1625 -28.56192,-45.8 -59.23765,-94.75 -30.67572,-48.95 -60.41374,-96.425 -66.08449,-105.5 l -10.31044,-16.5 0.92055,-12 c 0.5063,-6.6 4.97194,-69.375 9.92363,-139.5 11.62948,-164.69446 12.92014,-182.23522 13.44781,-182.76289 0.45161,-0.45161 14.24481,2.89379 190.07044,46.09968 56.65,13.92068 103.18679,25.16545 103.41508,24.98836 0.42442,-0.32922 -35.1523,-53.80906 -121.26263,-182.28511 -26.71123,-39.85298 -48.46998,-72.555845 -48.35278,-72.673042 0.1172,-0.117197 15.96021,-3.604791 35.20671,-7.750209 19.24649,-4.145418 49.67003,-10.705049 67.60786,-14.576956 17.93783,-3.871908 33.73919,-7.039833 35.11413,-7.039833 3.35561,0 21.73495,9.518665 33.08898,17.136788 23.05142,15.466642 39.64976,32.875572 47.64307,49.969752 3.32487,7.11043 8.23461,25.13739 10.18432,37.39346 1.78618,11.22808 1.53872,36.74379 -0.47911,49.40113 -6.28236,39.40762 -24.43082,82.50949 -51.41091,122.09887 -29.76143,43.6706 -67.80155,85.1064 -122.19908,133.10728 l -8.44435,7.45138 -3.1958,20.97067 c -3.89917,25.58616 -14.6181,95.97082 -25.35194,166.47067 -4.39632,28.875 -11.83241,77.7 -16.52464,108.5 -4.69224,30.8 -8.53305,56.3375 -8.53513,56.75 -0.0109,2.16198 -2.15118,0.11725 -5.23363,-5 z m -34.77015,-1.74616 c -25.97305,-6.11601 -43.25529,-10.14058 -131,-30.50636 -23.925,-5.55305 -56.1,-13.02489 -71.5,-16.60407 -15.4,-3.57918 -39.475,-9.15971 -53.5,-12.40118 -14.025,-3.24146 -74.1,-17.19004 -133.5,-30.99685 -59.4,-13.8068 -117,-27.12561 -128,-29.59736 -11,-2.47175 -24.95,-5.60927 -31,-6.97226 -6.05,-1.363 -11.59632,-2.85134 -12.32516,-3.30743 -0.98429,-0.61596 10.09141,-17.5219 43.05804,-65.7238 24.41076,-35.69199 66.36173,-97.06953 93.22439,-136.39453 26.86265,-39.325 49.56153,-72.25913 50.44196,-73.18697 1.48849,-1.56863 6.68616,1.92739 74.10077,49.84104 86.15741,61.23475 125.78848,89.3926 167.25,118.831 16.9125,12.00817 30.75,22.22218 30.75,22.6978 0,1.16939 -32.37779,16.80909 -55.07438,26.60301 -44.28294,19.10874 -89.44469,34.27777 -140.86276,47.31328 -12.89042,3.26798 -23.64033,6.14498 -23.88869,6.39333 -0.24835,0.24836 0.62336,0.87142 1.93714,1.3846 1.31378,0.51317 37.26369,14.74458 79.88869,31.62534 42.625,16.88076 98.875,39.1487 125,49.48431 109.97874,43.50996 144.52322,57.24462 144.91667,57.61792 1.04495,0.99147 -5.24444,-0.29111 -29.91667,-6.10082 z m -574.5,-134.57578 c -21.245406,-7.47746 -41.993877,-18.85593 -57.762366,-31.6769 -15.015512,-12.20875 -32.299846,-34.18721 -39.672091,-50.44634 -11.7925529,-26.00792 -11.6670164,-55.68064 0.470898,-111.30482 l 3.491407,-16 39.236078,-38.68778 c 30.432519,-30.00724 39.385143,-38.30908 39.900439,-37 0.365398,0.92828 1.159219,7.98778 1.764046,15.68778 0.604827,7.7 4.248009,49.775 8.095949,93.5 3.84795,43.725 8.97668,102 11.39717,129.5 2.42049,27.5 4.32835,50.06741 4.23968,50.14979 -0.0887,0.0824 -5.11121,-1.59239 -11.16121,-3.72173 z"
       id="path4829"
       inkscape:connector-curvature="0" />
  </g>
</svg>
