<?xml version="1.0" encoding="UTF-8" standalone="no"?>
<!-- Generator: Adobe Illustrator 16.0.0, SVG Export Plug-In . SVG Version: 6.00 Build 0)  -->

<svg
   xmlns:dc="http://purl.org/dc/elements/1.1/"
   xmlns:cc="http://creativecommons.org/ns#"
   xmlns:rdf="http://www.w3.org/1999/02/22-rdf-syntax-ns#"
   xmlns:svg="http://www.w3.org/2000/svg"
   xmlns="http://www.w3.org/2000/svg"
   xmlns:sodipodi="http://sodipodi.sourceforge.net/DTD/sodipodi-0.dtd"
   xmlns:inkscape="http://www.inkscape.org/namespaces/inkscape"
   version="1.1"
   id="Capa_1"
   x="0px"
   y="0px"
   width="550.801px"
   height="550.801px"
   viewBox="0 0 550.801 550.801"
   style="enable-background:new 0 0 550.801 550.801;"
   xml:space="preserve"
   sodipodi:docname="sql-logo.svg"
   inkscape:export-filename="/home/mitchell/Coding/github/portfolio-v2/src/assets/images/sql-logo.png"
   inkscape:export-xdpi="96"
   inkscape:export-ydpi="96"
   inkscape:version="0.92.5 (2060ec1f9f, 2020-04-08)"><metadata
   id="metadata4874"><rdf:RDF><cc:Work
       rdf:about=""><dc:format>image/svg+xml</dc:format><dc:type
         rdf:resource="http://purl.org/dc/dcmitype/StillImage" /><dc:title /></cc:Work></rdf:RDF></metadata><defs
   id="defs4872" /><sodipodi:namedview
   pagecolor="#ffffff"
   bordercolor="#666666"
   borderopacity="1"
   objecttolerance="10"
   gridtolerance="10"
   guidetolerance="10"
   inkscape:pageopacity="0"
   inkscape:pageshadow="2"
   inkscape:window-width="5076"
   inkscape:window-height="1376"
   id="namedview4870"
   showgrid="false"
   inkscape:zoom="1.036672"
   inkscape:cx="85.824511"
   inkscape:cy="246.37304"
   inkscape:window-x="44"
   inkscape:window-y="27"
   inkscape:window-maximized="1"
   inkscape:current-layer="Capa_1"
   showborder="false" />
<g
   id="g4837"
   transform="matrix(1.2512481,0,0,1.1800974,-18.994359,-99.198001)"
   inkscape:export-xdpi="96"
   inkscape:export-ydpi="96">
	<g
   id="g4835">
		<path
   d="m 277.425,402.116 c -20.208,0 -31.87,19.833 -31.87,44.317 -0.2,24.88 11.853,43.934 31.681,43.934 20.018,0 31.683,-18.858 31.683,-44.508 -10e-4,-23.91 -11.275,-43.743 -31.494,-43.743 z"
   id="path4829"
   inkscape:connector-curvature="0" />
		<path
   d="m 475.095,131.992 c -0.032,-2.526 -0.833,-5.021 -2.568,-6.993 l -106.203,-121.305 c -0.021,-0.034 -0.062,-0.045 -0.084,-0.076 -0.633,-0.707 -1.36,-1.29 -2.141,-1.804 -0.232,-0.15 -0.475,-0.285 -0.718,-0.422 -0.675,-0.366 -1.382,-0.67 -2.13,-0.892 -0.19,-0.058 -0.38,-0.14 -0.58,-0.192 -0.801,-0.194 -1.634,-0.308 -2.468,-0.308 h -261.003 c -11.908,0 -21.6,9.693 -21.6,21.601 v 507.6 c 0,11.913 9.692,21.601 21.6,21.601 h 356.4 c 11.908,0 21.601,-9.688 21.601,-21.601 v -395.999 c -0.001,-0.406 -0.064,-0.804 -0.106,-1.21 z m -327.713,381.699 c -14.974,0 -29.742,-3.892 -37.125,-7.979 l 6.022,-24.485 c 7.963,4.082 20.216,8.164 32.843,8.164 13.613,0 20.799,-5.643 20.799,-14.196 0,-8.169 -6.21,-12.825 -21.956,-18.457 -21.766,-7.583 -35.962,-19.644 -35.962,-38.687 0,-22.354 18.668,-39.461 49.57,-39.461 14.776,0 25.661,3.111 33.431,6.613 l -6.613,23.904 c -5.244,-2.521 -14.575,-6.207 -27.4,-6.207 -12.836,0 -19.045,5.822 -19.045,12.63 0,8.358 7.38,12.05 24.289,18.463 23.127,8.553 34.024,20.608 34.024,39.076 -0.006,21.954 -16.923,40.622 -52.877,40.622 z m 184.855,20.593 c -18.657,-5.442 -34.204,-11.074 -51.701,-18.468 -2.911,-1.16 -6.022,-1.745 -9.134,-1.936 -29.542,-1.936 -57.14,-23.715 -57.14,-66.482 0,-39.261 24.877,-68.808 63.942,-68.808 40.047,0 62.006,30.322 62.006,66.087 0,29.742 -13.796,50.735 -31.104,58.504 v 0.785 c 10.115,2.922 21.39,5.253 31.684,7.378 z m 109.255,-22.539 h -81.833 v -131.008 h 29.742 v 106.123 h 52.091 z m -344.292,-144.993 v -345.151 h 250.203 v 110.515 c 0,5.961 4.831,10.8 10.8,10.8 h 95.397 l 0.011,223.836 z"
   id="path4831"
   inkscape:connector-curvature="0" />
		<path
   d="m 334.114,171.171 c 0.475,-1.308 0.812,-2.647 0.812,-4.063 0,-17.386 -37.568,-26.765 -72.924,-26.765 -35.321,0 -72.879,9.379 -72.879,26.765 0,1.416 0.33,2.761 0.81,4.074 l -0.188,0.335 c -1.616,2.932 -2.415,5.89 -2.415,8.801 v 21.513 c 0,3.312 1.042,6.492 2.89,9.498 l -0.242,0.411 c -1.762,3.056 -2.647,6.151 -2.647,9.208 v 21.508 c 0,3.208 0.983,6.286 2.731,9.208 l -0.084,0.134 c -1.762,3.051 -2.647,6.152 -2.647,9.202 v 21.51 c 0,19.122 32.801,34.093 74.672,34.093 41.916,0 74.717,-14.971 74.717,-34.093 v -21.51 c 0,-3.056 -0.886,-6.162 -2.669,-9.208 l -0.073,-0.118 c 1.734,-2.927 2.742,-6.004 2.742,-9.218 v -21.508 c 0,-3.061 -0.886,-6.167 -2.669,-9.218 l -0.231,-0.396 c 1.846,-3.011 2.9,-6.186 2.9,-9.508 v -21.513 c 0,-2.911 -0.812,-5.877 -2.415,-8.81 z m -5.399,111.338 c 0,12.351 -27.38,26.093 -66.712,26.093 -39.295,0 -66.68,-13.742 -66.68,-26.093 v -20.231 c 12.263,11.232 37.492,18.396 66.68,18.396 29.228,0 54.456,-7.169 66.712,-18.407 z m 0,-40.054 c 0,12.34 -27.38,26.093 -66.712,26.093 -39.295,0 -66.68,-13.753 -66.68,-26.093 v -20.234 c 12.263,11.227 37.492,18.398 66.68,18.398 29.228,0 54.456,-7.172 66.712,-18.409 z m 0,-40.63 c 0,12.34 -27.38,26.093 -66.712,26.093 -39.295,0 -66.68,-13.748 -66.68,-26.093 v -17.9 c 11.984,10.156 39.772,15.422 66.68,15.422 26.944,0 54.72,-5.266 66.712,-15.422 z"
   id="path4833"
   inkscape:connector-curvature="0" />
	</g>
</g>
<g
   id="g4839">
</g>
<g
   id="g4841">
</g>
<g
   id="g4843">
</g>
<g
   id="g4845">
</g>
<g
   id="g4847">
</g>
<g
   id="g4849">
</g>
<g
   id="g4851">
</g>
<g
   id="g4853">
</g>
<g
   id="g4855">
</g>
<g
   id="g4857">
</g>
<g
   id="g4859">
</g>
<g
   id="g4861">
</g>
<g
   id="g4863">
</g>
<g
   id="g4865">
</g>
<g
   id="g4867">
</g>
</svg>